<svg viewBox="0 0 1000 129.534" xmlns="http://www.w3.org/2000/svg"><g fill="#fff"><path d="m70.713 81.745c0-3.851-.525-7.001-1.75-9.802h-.175c-4.726-11.202-17.678-14.528-31.331-16.103-4.376-.525-8.577-1.225-11.902-2.45h1.05c-4.551-1.575-7.526-3.851-7.526-8.052.175-5.951 5.601-10.677 17.153-10.677 8.927 0 16.803 4.551 19.604 9.277l12.427-6.301c0-.175-.175-.175-.175-.35h.175c-6.301-12.777-19.604-16.453-32.381-16.453-15.228.175-32.031 7.001-32.031 24.155v2.625c1.225 16.628 16.103 20.829 32.381 22.754 10.852 1.225 19.079 4.376 19.079 12.077-.175 8.752-9.277 12.252-19.079 12.252s-19.604-4.026-23.279-13.128l-12.952 6.651c0 .175.175.175.175.35h-.175c6.126 15.053 19.079 20.304 36.057 20.304 18.378 0 34.657-7.876 34.657-26.255v-.875z"/><path d="m193.439 90.494v15.403h61.787v-15.403z"/><path d="m253.65 71.943v-14.702h-60.211v14.702z"/><path d="m193.439 38.336h61.787v-15.053h-61.787z"/><path d="m129.056 23.109h-23.28v14.878h23.28c19.779 0 19.954 29.231 0 29.231h-23.28v38.683h16.629v-24.33h6.826c40.432 0 40.257-58.461-.175-58.461z"/><path d="m331.915 93.124c-20.479 0-28.356-14.353-28.531-28.005-.175-13.828 8.577-28.705 28.531-28.705 7.176 0 14.527 2.451 19.953 7.876l10.327-9.977c-8.576-8.402-19.078-12.602-30.28-12.602-29.931 0-43.934 21.879-43.759 43.583.175 21.529 13.128 42.533 43.759 42.533 11.902 0 22.929-3.851 31.331-12.252l-10.677-10.677c-5.251 5.251-13.478 8.227-20.654 8.227z"/><path d="m389.049 37.461h26.255v68.437h15.578v-68.437h26.255v-14.178h-67.913v14.178z"/><path d="m489.434 90.494v15.403h61.786v-15.403z"/><path d="m549.47 71.943v-14.702h-60.036s0 14.702 0 14.702z"/><path d="m489.434 38.336h61.786v-15.053h-61.786z"/></g><path d="m872.846 23.109h-23.279v14.878h23.279c19.779 0 19.954 29.231 0 29.231h-23.454v38.683h15.053v-24.33h8.226c40.608 0 40.433-58.461.175-58.461z" fill="#00b36b"/><path d="m1000 81.746c0-3.851-.526-7.001-1.751-9.802h-.175c-4.726-11.202-17.678-14.528-31.331-16.103-4.376-.525-8.576-1.225-11.902-2.45h1.05c-1.05-.35-1.925-.7-2.8-1.225-2.976-1.575-4.726-3.676-4.726-7.001.175-5.951 5.601-10.677 17.153-10.677 8.927 0 16.803 4.551 19.604 9.277l12.427-6.301c0-.175-.175-.175-.175-.35h.175c-6.301-12.778-19.604-16.453-32.381-16.453-15.228.175-32.031 7.001-32.031 24.155v2.625c1.225 16.628 16.103 20.829 32.381 22.754 10.852 1.225 18.904 4.376 19.079 11.902-.175 8.752-9.277 12.252-19.079 12.252s-19.604-4.026-23.279-13.128l-12.953 6.651c0 .175.175.175.175.35h-.175c6.126 15.052 19.079 20.303 36.057 20.303 18.379 0 34.657-7.876 34.657-26.255v-.525z" fill="#00b36b"/><path d="m644.904 50.59c0-14.353-10.327-27.305-29.756-27.305h-23.804v14.528h23.804c9.802 0 14.178 6.651 14.178 13.302s-4.201 13.303-14.178 13.303h-23.629v41.483h15.053v-27.655l9.101-.875 25.03 28.531h18.554v-1.05l-27.481-30.806c9.802-4.901 13.128-14.178 13.128-23.455z" fill="#fff"/><path d="m731.618 53.86v4.57l3.255 3.947 10.526.485v-9.002l-6.994-3.947z" fill="#fff"/><path d="m755.089 53.86v9.141l10.319-.623 3.532-3.947v-4.57l-6.995-3.947-6.856 3.947z" fill="#fff"/><path d="m797.544 91.878-8.449-4.847.069-.069v-44.458l-11.98-6.717-9.003-5.055-17.729-9.903-17.451 9.903-9.003 5.125-2.216 1.246-8.379-4.917 2.77-1.593 13.157-7.548 20.915-11.911 21.329 11.98 13.158 7.41 12.742 7.133 9.488-5.471v-.069l-17.59-9.833-13.158-7.41-25.969-14.542-25.554 14.612-13.158 7.548-16.898 9.626v.208l17.867 10.249v44.112l38.366 22.091 28.878-16.343 8.31 4.917-37.119 20.982-46.676-26.869-9.487 5.471 56.094 32.27 46.606-26.384 9.626-5.47v-.069l-9.556-5.402zm-75.623-10.664v-33.24l6.786-3.878 9.003-5.125 12.742-7.271 13.089 7.34 9.003 5.055 7.202 4.016v33.517l-28.878 16.343-28.947-16.758z" fill="#00b36b"/><path d="m799.619 47.698v34.348l10.041 5.124v-45.151l-10.041 5.678z" fill="#00b36b"/><path d="m701.285 47.698-10.111-5.678v45.151l10.111-5.124v-34.348z" fill="#00b36b"/></svg>