<svg xmlns="http://www.w3.org/2000/svg" width="256" height="256" viewBox="0 0 256 256">
  <circle cx="128" cy="128" r="119.424" fill="#03FC84" stroke="#000000" stroke-width="17.152"/>
  <g transform="translate(128,128) scale(0.32) translate(-256,-256)" fill="#000000" color="#000000">
    <!--! Font Awesome Free 6.7.2 by @fontawesome - https://fontawesome.com License - https://fontawesome.com/license/free (Icons: CC BY 4.0, Fonts: SIL OFL 1.1, Code: MIT License) Copyright 2024 Fonticons, Inc. --><path d="M432 64L208 64c-8.8 0-16 7.2-16 16l0 16-64 0 0-16c0-44.2 35.8-80 80-80L432 0c44.2 0 80 35.8 80 80l0 224c0 44.2-35.8 80-80 80l-16 0 0-64 16 0c8.8 0 16-7.2 16-16l0-224c0-8.8-7.2-16-16-16zM0 192c0-35.3 28.7-64 64-64l256 0c35.3 0 64 28.7 64 64l0 256c0 35.3-28.7 64-64 64L64 512c-35.3 0-64-28.7-64-64L0 192zm64 32c0 17.7 14.3 32 32 32l192 0c17.7 0 32-14.3 32-32s-14.3-32-32-32L96 192c-17.7 0-32 14.3-32 32z"/>
  </g>
</svg>