<svg xmlns="http://www.w3.org/2000/svg" width="256" height="256" viewBox="0 0 256 256">
  <circle cx="128" cy="128" r="119.424" fill="#C1D6D6" stroke="#000000" stroke-width="17.152"/>
  <g transform="translate(128,128) scale(0.256) translate(-320,-256)" fill="#000000" color="#000000">
    <!--! Font Awesome Free 6.7.2 by @fontawesome - https://fontawesome.com License - https://fontawesome.com/license/free (Icons: CC BY 4.0, Fonts: SIL OFL 1.1, Code: MIT License) Copyright 2024 Fonticons, Inc. --><path d="M320 0c17.7 0 32 14.3 32 32l0 64 120 0c39.8 0 72 32.2 72 72l0 272c0 39.8-32.2 72-72 72l-304 0c-39.8 0-72-32.2-72-72l0-272c0-39.8 32.2-72 72-72l120 0 0-64c0-17.7 14.3-32 32-32zM208 384c-8.8 0-16 7.2-16 16s7.2 16 16 16l32 0c8.8 0 16-7.2 16-16s-7.2-16-16-16l-32 0zm96 0c-8.8 0-16 7.2-16 16s7.2 16 16 16l32 0c8.8 0 16-7.2 16-16s-7.2-16-16-16l-32 0zm96 0c-8.8 0-16 7.2-16 16s7.2 16 16 16l32 0c8.8 0 16-7.2 16-16s-7.2-16-16-16l-32 0zM264 256a40 40 0 1 0 -80 0 40 40 0 1 0 80 0zm152 40a40 40 0 1 0 0-80 40 40 0 1 0 0 80zM48 224l16 0 0 192-16 0c-26.5 0-48-21.5-48-48l0-96c0-26.5 21.5-48 48-48zm544 0c26.5 0 48 21.5 48 48l0 96c0 26.5-21.5 48-48 48l-16 0 0-192 16 0z"/>
  </g>
</svg>