<svg width="237" height="45" viewBox="0 0 237 45" fill="none" xmlns="http://www.w3.org/2000/svg">
<g clip-path="url(#clip0_1_23)">
<path d="M229 0H8C3.58172 0 0 3.58172 0 8V36.9041C0 41.3224 3.58172 44.9041 8 44.9041H229C233.418 44.9041 237 41.3224 237 36.9041V8C237 3.58172 233.418 0 229 0Z" fill="#D63C30"/>
<path d="M63.6719 24.7332H66.5918C66.5332 25.6902 66.2695 26.5398 65.8008 27.282C65.3385 28.0242 64.6908 28.6036 63.8574 29.0203C63.0306 29.4369 62.0345 29.6453 60.8691 29.6453C59.9577 29.6453 59.1406 29.489 58.418 29.1765C57.6953 28.8575 57.0768 28.4018 56.5625 27.8093C56.0547 27.2169 55.6673 26.5008 55.4004 25.6609C55.1335 24.8211 55 23.8803 55 22.8386V21.8523C55 20.8106 55.1367 19.8699 55.4102 19.03C55.6901 18.1837 56.0872 17.4643 56.6016 16.8718C57.1224 16.2794 57.7441 15.8237 58.4668 15.5047C59.1895 15.1856 59.9967 15.0261 60.8887 15.0261C62.0736 15.0261 63.0729 15.241 63.8867 15.6707C64.707 16.1004 65.3418 16.6928 65.791 17.448C66.2467 18.2032 66.5202 19.0626 66.6113 20.0261H63.6816C63.6491 19.4532 63.5352 18.9682 63.3398 18.5711C63.1445 18.1674 62.8483 17.8647 62.4512 17.6629C62.0605 17.4545 61.5397 17.3504 60.8887 17.3504C60.4004 17.3504 59.974 17.4415 59.6094 17.6238C59.2448 17.8061 58.9388 18.0828 58.6914 18.4539C58.444 18.825 58.2585 19.2937 58.1348 19.8601C58.0176 20.42 57.959 21.0776 57.959 21.8328V22.8386C57.959 23.5743 58.0143 24.2221 58.125 24.782C58.2357 25.3354 58.4049 25.8041 58.6328 26.1883C58.8672 26.5659 59.1667 26.8523 59.5313 27.0476C59.9023 27.2364 60.3483 27.3308 60.8691 27.3308C61.4811 27.3308 61.9857 27.2332 62.3828 27.0379C62.7799 26.8425 63.0827 26.5528 63.291 26.1687C63.5059 25.7846 63.6328 25.3061 63.6719 24.7332ZM67.8906 24.2742V24.0691C67.8906 23.2944 68.0013 22.5815 68.2227 21.9304C68.444 21.2729 68.7663 20.7032 69.1895 20.2215C69.6126 19.7397 70.1335 19.3653 70.752 19.0984C71.3704 18.825 72.0801 18.6883 72.8809 18.6883C73.6816 18.6883 74.3945 18.825 75.0195 19.0984C75.6445 19.3653 76.1686 19.7397 76.5918 20.2215C77.0215 20.7032 77.347 21.2729 77.5684 21.9304C77.7897 22.5815 77.9004 23.2944 77.9004 24.0691V24.2742C77.9004 25.0424 77.7897 25.7553 77.5684 26.4129C77.347 27.0639 77.0215 27.6336 76.5918 28.1218C76.1686 28.6036 75.6478 28.978 75.0293 29.2449C74.4108 29.5118 73.7012 29.6453 72.9004 29.6453C72.0996 29.6453 71.3867 29.5118 70.7617 29.2449C70.1432 28.978 69.6191 28.6036 69.1895 28.1218C68.7663 27.6336 68.444 27.0639 68.2227 26.4129C68.0013 25.7553 67.8906 25.0424 67.8906 24.2742ZM70.7031 24.0691V24.2742C70.7031 24.7169 70.7422 25.1303 70.8203 25.5144C70.8984 25.8985 71.0221 26.2371 71.1914 26.53C71.3672 26.8165 71.5951 27.0411 71.875 27.2039C72.1549 27.3666 72.4967 27.448 72.9004 27.448C73.291 27.448 73.6263 27.3666 73.9063 27.2039C74.1862 27.0411 74.4108 26.8165 74.5801 26.53C74.7493 26.2371 74.873 25.8985 74.9512 25.5144C75.0358 25.1303 75.0781 24.7169 75.0781 24.2742V24.0691C75.0781 23.6394 75.0358 23.2358 74.9512 22.8582C74.873 22.4741 74.7461 22.1355 74.5703 21.8425C74.401 21.5431 74.1764 21.3087 73.8965 21.1394C73.6165 20.9702 73.278 20.8855 72.8809 20.8855C72.4837 20.8855 72.1452 20.9702 71.8652 21.1394C71.5918 21.3087 71.3672 21.5431 71.1914 21.8425C71.0221 22.1355 70.8984 22.4741 70.8203 22.8582C70.7422 23.2358 70.7031 23.6394 70.7031 24.0691ZM82.4414 21.0711V29.45H79.6191V18.8836H82.2656L82.4414 21.0711ZM82.0508 23.7957H81.2695C81.2695 23.06 81.3574 22.3829 81.5332 21.7644C81.7155 21.1394 81.9792 20.5991 82.3242 20.1433C82.6758 19.6811 83.1087 19.323 83.623 19.0691C84.1374 18.8152 84.7331 18.6883 85.4102 18.6883C85.8789 18.6883 86.3086 18.7599 86.6992 18.9031C87.0898 19.0398 87.4251 19.2579 87.7051 19.5574C87.9915 19.8504 88.2129 20.2345 88.3691 20.7097C88.5254 21.1785 88.6035 21.7416 88.6035 22.3992V29.45H85.791V22.7117C85.791 22.2299 85.7259 21.8588 85.5957 21.5984C85.4655 21.338 85.2799 21.1557 85.0391 21.0515C84.8047 20.9474 84.5215 20.8953 84.1895 20.8953C83.8249 20.8953 83.5059 20.9702 83.2324 21.1199C82.9655 21.2696 82.7441 21.478 82.5684 21.7449C82.3926 22.0053 82.2624 22.3113 82.1777 22.6629C82.0931 23.0144 82.0508 23.392 82.0508 23.7957ZM88.3398 23.4734L87.334 23.6004C87.334 22.9103 87.4186 22.269 87.5879 21.6765C87.7637 21.0841 88.0208 20.5633 88.3594 20.114C88.7044 19.6648 89.1309 19.3165 89.6387 19.0691C90.1465 18.8152 90.7324 18.6883 91.3965 18.6883C91.9043 18.6883 92.3665 18.7631 92.7832 18.9129C93.1999 19.0561 93.5547 19.2872 93.8477 19.6062C94.1471 19.9187 94.375 20.3289 94.5313 20.8367C94.694 21.3445 94.7754 21.9662 94.7754 22.7019V29.45H91.9531V22.7019C91.9531 22.2136 91.888 21.8425 91.7578 21.5886C91.6341 21.3282 91.4518 21.1492 91.2109 21.0515C90.9766 20.9474 90.6966 20.8953 90.3711 20.8953C90.0326 20.8953 89.7363 20.9636 89.4824 21.1004C89.2285 21.2306 89.0169 21.4129 88.8477 21.6472C88.6784 21.8816 88.5514 22.155 88.4668 22.4675C88.3822 22.7735 88.3398 23.1088 88.3398 23.4734ZM99.7656 21.0711V29.45H96.9434V18.8836H99.5898L99.7656 21.0711ZM99.375 23.7957H98.5938C98.5938 23.06 98.6816 22.3829 98.8574 21.7644C99.0397 21.1394 99.3034 20.5991 99.6484 20.1433C100 19.6811 100.433 19.323 100.947 19.0691C101.462 18.8152 102.057 18.6883 102.734 18.6883C103.203 18.6883 103.633 18.7599 104.023 18.9031C104.414 19.0398 104.749 19.2579 105.029 19.5574C105.316 19.8504 105.537 20.2345 105.693 20.7097C105.85 21.1785 105.928 21.7416 105.928 22.3992V29.45H103.115V22.7117C103.115 22.2299 103.05 21.8588 102.92 21.5984C102.79 21.338 102.604 21.1557 102.363 21.0515C102.129 20.9474 101.846 20.8953 101.514 20.8953C101.149 20.8953 100.83 20.9702 100.557 21.1199C100.29 21.2696 100.068 21.478 99.8926 21.7449C99.7168 22.0053 99.5866 22.3113 99.502 22.6629C99.4173 23.0144 99.375 23.392 99.375 23.7957ZM105.664 23.4734L104.658 23.6004C104.658 22.9103 104.743 22.269 104.912 21.6765C105.088 21.0841 105.345 20.5633 105.684 20.114C106.029 19.6648 106.455 19.3165 106.963 19.0691C107.471 18.8152 108.056 18.6883 108.72 18.6883C109.228 18.6883 109.69 18.7631 110.107 18.9129C110.524 19.0561 110.879 19.2872 111.172 19.6062C111.472 19.9187 111.699 20.3289 111.855 20.8367C112.018 21.3445 112.1 21.9662 112.1 22.7019V29.45H109.277V22.7019C109.277 22.2136 109.212 21.8425 109.082 21.5886C108.958 21.3282 108.776 21.1492 108.535 21.0515C108.3 20.9474 108.02 20.8953 107.695 20.8953C107.357 20.8953 107.061 20.9636 106.807 21.1004C106.553 21.2306 106.341 21.4129 106.172 21.6472C106.003 21.8816 105.876 22.155 105.791 22.4675C105.706 22.7735 105.664 23.1088 105.664 23.4734ZM120.527 26.9207V18.8836H123.34V29.45H120.693L120.527 26.9207ZM120.84 24.7527L121.67 24.7332C121.67 25.4363 121.588 26.0906 121.425 26.6961C121.263 27.295 121.018 27.8159 120.693 28.2586C120.367 28.6948 119.958 29.0366 119.463 29.284C118.969 29.5248 118.386 29.6453 117.715 29.6453C117.201 29.6453 116.725 29.5737 116.289 29.4304C115.859 29.2807 115.488 29.0496 115.175 28.7371C114.869 28.4181 114.628 28.0112 114.453 27.5164C114.283 27.0151 114.2 26.4129 114.2 25.7097V18.8836H117.011V25.7293C117.011 26.0418 117.047 26.3054 117.119 26.5203C117.197 26.7351 117.304 26.9109 117.441 27.0476C117.578 27.1843 117.738 27.282 117.92 27.3406C118.109 27.3992 118.318 27.4285 118.545 27.4285C119.125 27.4285 119.58 27.3113 119.912 27.0769C120.25 26.8425 120.488 26.5235 120.625 26.1199C120.768 25.7097 120.84 25.254 120.84 24.7527ZM128.243 21.1394V29.45H125.429V18.8836H128.066L128.243 21.1394ZM127.832 23.7957H127.07C127.07 23.0144 127.171 22.3113 127.373 21.6863C127.574 21.0548 127.858 20.5177 128.222 20.075C128.587 19.6258 129.02 19.284 129.521 19.0496C130.029 18.8087 130.595 18.6883 131.22 18.6883C131.715 18.6883 132.167 18.7599 132.578 18.9031C132.988 19.0463 133.339 19.2742 133.632 19.5867C133.932 19.8992 134.16 20.3126 134.316 20.8269C134.479 21.3412 134.561 21.9695 134.561 22.7117V29.45H131.729V22.7019C131.729 22.2332 131.664 21.8686 131.534 21.6082C131.403 21.3478 131.21 21.1655 130.957 21.0613C130.709 20.9506 130.403 20.8953 130.039 20.8953C129.661 20.8953 129.332 20.9702 129.052 21.1199C128.779 21.2696 128.551 21.478 128.369 21.7449C128.193 22.0053 128.059 22.3113 127.968 22.6629C127.877 23.0144 127.832 23.392 127.832 23.7957ZM139.667 18.8836V29.45H136.846V18.8836H139.667ZM136.669 16.1297C136.669 15.7195 136.814 15.381 137.1 15.114C137.387 14.8471 137.77 14.7136 138.251 14.7136C138.727 14.7136 139.109 14.8471 139.395 15.114C139.688 15.381 139.833 15.7195 139.833 16.1297C139.833 16.5398 139.688 16.8784 139.395 17.1453C139.109 17.4122 138.727 17.5457 138.251 17.5457C137.77 17.5457 137.387 17.4122 137.1 17.1453C136.814 16.8784 136.669 16.5398 136.669 16.1297ZM147.167 18.8836V20.8758H141.016V18.8836H147.167ZM142.54 16.2761H145.352V26.2664C145.352 26.5724 145.391 26.8067 145.469 26.9695C145.554 27.1323 145.677 27.2462 145.839 27.3113C146.002 27.3699 146.208 27.3992 146.456 27.3992C146.631 27.3992 146.787 27.3927 146.923 27.3797C147.067 27.3601 147.187 27.3406 147.285 27.3211L147.294 29.3914C147.054 29.4695 146.794 29.5313 146.514 29.5769C146.234 29.6225 145.924 29.6453 145.585 29.6453C144.967 29.6453 144.427 29.5444 143.964 29.3425C143.509 29.1342 143.157 28.8022 142.91 28.3465C142.662 27.8907 142.54 27.2918 142.54 26.5496V16.2761ZM151.904 28.2586L154.708 18.8836H157.725L153.477 31.0418C153.386 31.3087 153.261 31.5952 153.105 31.9011C152.955 32.2071 152.75 32.4968 152.49 32.7703C152.236 33.0502 151.914 33.2781 151.523 33.4539C151.139 33.6297 150.667 33.7175 150.107 33.7175C149.84 33.7175 149.623 33.7013 149.454 33.6687C149.284 33.6362 149.083 33.5906 148.848 33.532V31.4715C148.92 31.4715 148.994 31.4715 149.072 31.4715C149.15 31.478 149.225 31.4812 149.296 31.4812C149.667 31.4812 149.971 31.4389 150.206 31.3543C150.44 31.2696 150.628 31.1394 150.771 30.9636C150.914 30.7944 151.028 30.573 151.113 30.2996L151.904 28.2586ZM150.732 18.8836L153.027 26.5398L153.428 29.5183L151.514 29.7234L147.714 18.8836H150.732ZM173.417 27.9168V29.45H165.889V27.9168H173.417ZM166.27 15.2312V29.45H164.385V15.2312H166.27ZM172.421 21.3445V22.8777H165.889V21.3445H172.421ZM173.32 15.2312V16.7742H165.889V15.2312H173.32ZM181.943 27.3992V14.45H183.76V29.45H182.1L181.943 27.3992ZM174.833 24.284V24.0789C174.833 23.2716 174.931 22.5392 175.126 21.8816C175.328 21.2175 175.612 20.6479 175.977 20.1726C176.348 19.6974 176.787 19.3328 177.294 19.0789C177.809 18.8185 178.383 18.6883 179.014 18.6883C179.678 18.6883 180.257 18.8054 180.751 19.0398C181.253 19.2677 181.676 19.603 182.021 20.0457C182.373 20.4819 182.65 21.0092 182.852 21.6277C183.054 22.2462 183.193 22.9461 183.271 23.7273V24.6258C183.199 25.4005 183.06 26.0971 182.852 26.7156C182.65 27.3341 182.373 27.8614 182.021 28.2976C181.676 28.7338 181.253 29.0691 180.751 29.3035C180.25 29.5313 179.664 29.6453 178.994 29.6453C178.375 29.6453 177.809 29.5118 177.294 29.2449C176.787 28.978 176.348 28.6036 175.977 28.1218C175.612 27.6401 175.328 27.0737 175.126 26.4226C174.931 25.7651 174.833 25.0522 174.833 24.284ZM176.65 24.0789V24.284C176.65 24.8113 176.703 25.3061 176.807 25.7683C176.918 26.2306 177.086 26.6375 177.314 26.989C177.542 27.3406 177.833 27.6173 178.184 27.8191C178.536 28.0144 178.955 28.1121 179.443 28.1121C180.042 28.1121 180.533 27.9851 180.917 27.7312C181.308 27.4773 181.621 27.142 181.855 26.7254C182.089 26.3087 182.272 25.8562 182.402 25.3679V23.0144C182.324 22.6563 182.211 22.3113 182.061 21.9793C181.918 21.6407 181.728 21.3412 181.494 21.0808C181.266 20.8139 180.984 20.6023 180.645 20.4461C180.313 20.2898 179.918 20.2117 179.462 20.2117C178.968 20.2117 178.542 20.3159 178.184 20.5242C177.833 20.726 177.542 21.006 177.314 21.364C177.086 21.7156 176.918 22.1258 176.807 22.5945C176.703 23.0567 176.65 23.5515 176.65 24.0789ZM188.535 18.8836V29.45H186.719V18.8836H188.535ZM186.583 16.0808C186.583 15.7879 186.67 15.5405 186.846 15.3386C187.028 15.1368 187.294 15.0359 187.646 15.0359C187.991 15.0359 188.256 15.1368 188.438 15.3386C188.626 15.5405 188.721 15.7879 188.721 16.0808C188.721 16.3608 188.626 16.6017 188.438 16.8035C188.256 16.9988 187.991 17.0965 187.646 17.0965C187.294 17.0965 187.028 16.9988 186.846 16.8035C186.67 16.6017 186.583 16.3608 186.583 16.0808ZM195.859 18.8836V20.2703H190.146V18.8836H195.859ZM192.081 16.3152H193.887V26.8328C193.887 27.1909 193.943 27.461 194.053 27.6433C194.164 27.8256 194.306 27.9461 194.482 28.0047C194.658 28.0633 194.847 28.0925 195.048 28.0925C195.198 28.0925 195.355 28.0795 195.518 28.0535C195.687 28.0209 195.813 27.9949 195.898 27.9754L195.908 29.45C195.764 29.4955 195.576 29.5379 195.341 29.5769C195.113 29.6225 194.838 29.6453 194.512 29.6453C194.07 29.6453 193.663 29.5574 193.292 29.3816C192.92 29.2058 192.623 28.9129 192.402 28.5027C192.187 28.086 192.081 27.5261 192.081 26.823V16.3152ZM199.941 18.8836V29.45H198.126V18.8836H199.941ZM197.988 16.0808C197.988 15.7879 198.076 15.5405 198.251 15.3386C198.434 15.1368 198.702 15.0359 199.053 15.0359C199.398 15.0359 199.662 15.1368 199.844 15.3386C200.033 15.5405 200.126 15.7879 200.126 16.0808C200.126 16.3608 200.033 16.6017 199.844 16.8035C199.662 16.9988 199.398 17.0965 199.053 17.0965C198.702 17.0965 198.434 16.9988 198.251 16.8035C198.076 16.6017 197.988 16.3608 197.988 16.0808ZM202.363 24.284V24.0593C202.363 23.2976 202.473 22.5912 202.695 21.9402C202.916 21.2827 203.235 20.713 203.652 20.2312C204.069 19.7429 204.574 19.3653 205.167 19.0984C205.759 18.825 206.422 18.6883 207.158 18.6883C207.9 18.6883 208.567 18.825 209.16 19.0984C209.759 19.3653 210.267 19.7429 210.684 20.2312C211.107 20.713 211.429 21.2827 211.65 21.9402C211.871 22.5912 211.982 23.2976 211.982 24.0593V24.284C211.982 25.0457 211.871 25.7521 211.65 26.4031C211.429 27.0541 211.107 27.6238 210.684 28.1121C210.267 28.5938 209.762 28.9715 209.169 29.2449C208.583 29.5118 207.92 29.6453 207.178 29.6453C206.436 29.6453 205.769 29.5118 205.176 29.2449C204.584 28.9715 204.075 28.5938 203.652 28.1121C203.235 27.6238 202.916 27.0541 202.695 26.4031C202.473 25.7521 202.363 25.0457 202.363 24.284ZM204.169 24.0593V24.284C204.169 24.8113 204.231 25.3093 204.355 25.7781C204.479 26.2403 204.665 26.6505 204.913 27.0086C205.167 27.3666 205.481 27.6498 205.859 27.8582C206.236 28.06 206.677 28.1609 207.178 28.1609C207.673 28.1609 208.106 28.06 208.477 27.8582C208.855 27.6498 209.167 27.3666 209.415 27.0086C209.662 26.6505 209.848 26.2403 209.971 25.7781C210.101 25.3093 210.167 24.8113 210.167 24.284V24.0593C210.167 23.5385 210.101 23.047 209.971 22.5847C209.848 22.116 209.658 21.7026 209.404 21.3445C209.156 20.9799 208.844 20.6935 208.466 20.4851C208.095 20.2768 207.659 20.1726 207.158 20.1726C206.663 20.1726 206.228 20.2768 205.85 20.4851C205.479 20.6935 205.167 20.9799 204.913 21.3445C204.665 21.7026 204.479 22.116 204.355 22.5847C204.231 23.047 204.169 23.5385 204.169 24.0593ZM216.055 21.1394V29.45H214.249V18.8836H215.958L216.055 21.1394ZM215.626 23.7664L214.874 23.7371C214.88 23.0144 214.986 22.3471 215.195 21.7351C215.403 21.1166 215.696 20.5795 216.074 20.1238C216.451 19.6681 216.901 19.3165 217.421 19.0691C217.949 18.8152 218.531 18.6883 219.169 18.6883C219.69 18.6883 220.159 18.7599 220.576 18.9031C220.992 19.0398 221.348 19.2612 221.641 19.5672C221.941 19.8731 222.167 20.2703 222.324 20.7586C222.48 21.2403 222.559 21.8295 222.559 22.5261V29.45H220.742V22.5066C220.742 21.9532 220.661 21.5105 220.499 21.1785C220.336 20.8399 220.097 20.5958 219.785 20.4461C219.472 20.2898 219.088 20.2117 218.632 20.2117C218.183 20.2117 217.773 20.3061 217.402 20.4949C217.037 20.6837 216.723 20.9441 216.456 21.2761C216.195 21.6082 215.989 21.989 215.839 22.4187C215.696 22.8419 215.626 23.2911 215.626 23.7664Z" fill="white"/>
<path d="M45.5094 31.1978C45.5094 31.1978 45.5052 31.1978 45.5029 31.1978L44.8357 29.3645C44.9442 29.2726 45.0156 29.1378 45.0156 28.9835C45.0156 28.8021 44.9182 28.6449 44.774 28.5572L44.8556 28.1468C45.1004 28.1174 45.2896 27.9094 45.2896 27.6548C45.2896 27.3792 45.0689 27.1567 44.7963 27.1567C44.7661 27.1567 44.7355 27.1609 44.7063 27.1661L42.666 24.0932C42.7259 24.0111 42.762 23.9095 42.762 23.7999C42.762 23.5242 42.5413 23.3018 42.2687 23.3018C42.1963 23.3018 42.1277 23.3186 42.066 23.347L40.145 21.3291C40.1783 21.2615 40.1992 21.1864 40.1992 21.1062C40.1992 20.8305 39.9785 20.6081 39.7058 20.6081C39.6242 20.6081 39.5482 20.63 39.48 20.6659L37.8919 19.1666C37.9178 19.1055 37.9336 19.0378 37.9336 18.967C37.9336 18.6913 37.7129 18.4689 37.4402 18.4689C37.3586 18.4689 37.2826 18.4913 37.2144 18.5267L35.9532 17.3366C35.9791 17.2755 35.9949 17.2078 35.9949 17.137C35.9949 16.8613 35.7742 16.6389 35.5015 16.6389C35.3573 16.6389 35.2284 16.7023 35.1385 16.8012L30.9504 15.0127C30.9504 14.7385 30.7287 14.5165 30.457 14.5165C30.2813 14.5165 30.1278 14.6102 30.0397 14.7497L26.1739 14.1546C26.1322 13.9223 25.9314 13.746 25.6898 13.746C25.4742 13.746 25.2933 13.8855 25.2256 14.0795H22.9011C22.833 13.8855 22.6521 13.746 22.4379 13.746C22.1838 13.746 21.9779 13.94 21.9496 14.1882L19.8686 14.6769C19.781 14.5389 19.6279 14.447 19.4536 14.447C19.2236 14.447 19.0312 14.6065 18.9769 14.8215L17.488 14.9576C17.4096 14.7865 17.239 14.6676 17.0405 14.6676C16.894 14.6676 16.7646 14.7329 16.6733 14.8355L14.9511 14.1252C14.9521 14.1093 14.9562 14.0935 14.9562 14.0767C14.9562 13.8011 14.7355 13.5786 14.4629 13.5786C14.3771 13.5786 14.2978 13.6029 14.2278 13.6411L12.9378 12.3395L12.3897 11.1027C12.4996 11.0108 12.5705 10.8747 12.5705 10.7198C12.5705 10.4815 12.4041 10.2828 12.1824 10.2334L12.1231 8.11286L11.843 8L11.3682 8.47895L11.3223 8.56663L11.0116 10.3006V10.3575L11.2448 11.7841C11.0992 11.8708 11 12.0294 11 12.2117C11 12.4873 11.2207 12.7098 11.4934 12.7098C11.5193 12.7098 11.5444 12.7056 11.5708 12.7023L12.0939 13.5921C12.0229 13.6789 11.9779 13.7885 11.9779 13.9088C11.9779 14.1844 12.1986 14.4069 12.4713 14.4069C12.5673 14.4069 12.6563 14.3784 12.7328 14.3299L15.1338 16.2518C15.1148 16.3036 15.1037 16.3595 15.1037 16.4174C15.1037 16.693 15.3244 16.9154 15.5971 16.9154C15.758 16.9154 15.9003 16.8362 15.9903 16.7158L17.4351 17.1813C17.4416 17.3659 17.5469 17.524 17.7008 17.6056L17.3902 19.8596C17.1653 19.9062 16.996 20.1067 16.996 20.3469C16.996 20.5871 17.1569 20.7764 17.3725 20.8291L17.4982 22.0841C17.3308 22.1643 17.2149 22.3341 17.2149 22.5328C17.2149 22.668 17.2691 22.7911 17.3558 22.8811L16.5945 24.4472C16.5787 24.4462 16.5629 24.442 16.5476 24.442C16.2745 24.442 16.0543 24.665 16.0543 24.9401C16.0543 25.0152 16.0719 25.0847 16.1002 25.1481L14.6743 26.5892C14.6103 26.5584 14.5394 26.5397 14.4629 26.5397C14.1897 26.5397 13.9695 26.7622 13.9695 27.0378C13.9695 27.2024 14.0488 27.3461 14.1703 27.4365L13.5605 29.4587C13.299 29.4704 13.0899 29.6867 13.0899 29.9544C13.0899 30.2226 13.3106 30.4525 13.5832 30.4525C13.6115 30.4525 13.6398 30.4483 13.6667 30.4441L14.8839 32.6309C14.8051 32.7195 14.7559 32.8356 14.7559 32.9634C14.7559 33.239 14.9766 33.4615 15.2493 33.4615C15.4617 33.4615 15.6416 33.3253 15.7102 33.1355L18.4089 33.1714L18.5679 32.9541L18.2962 32.1142C18.4047 32.0223 18.4752 31.8875 18.4752 31.7331C18.4752 31.4575 18.2545 31.2351 17.9818 31.2351C17.871 31.2351 17.7695 31.2728 17.6869 31.3363L16.3306 30.6251C16.3339 30.6027 16.3371 30.5808 16.3371 30.5574C16.3371 30.3746 16.2388 30.2165 16.0932 30.1303L16.4099 28.4882C16.6473 28.4523 16.83 28.2476 16.83 27.9976C16.83 27.9351 16.8175 27.8773 16.7976 27.8222L18.4455 26.4199C18.5188 26.4633 18.6022 26.4894 18.6931 26.4894C18.9662 26.4894 19.1865 26.2669 19.1865 25.9913C19.1865 25.8985 19.1591 25.8117 19.1156 25.7381L20.221 24.4094C20.2743 24.4295 20.3318 24.442 20.3926 24.442C20.4157 24.442 20.4366 24.4378 20.4584 24.4355L21.3223 26.1219C21.2397 26.2105 21.1873 26.3299 21.1873 26.4619C21.1873 26.6148 21.2573 26.7501 21.3649 26.8419L20.8108 28.3446C20.8108 28.3446 20.8057 28.3446 20.8034 28.3446C20.5307 28.3446 20.31 28.5675 20.31 28.8426C20.31 29.1178 20.5298 29.3384 20.8006 29.3407L21.8231 32.3175C21.7354 32.407 21.6807 32.5306 21.6807 32.6677C21.6807 32.9433 21.9014 33.1658 22.1741 33.1658C22.239 33.1658 22.3007 33.1518 22.3572 33.1299L23.5628 34.2972C23.5345 34.3597 23.5179 34.4292 23.5179 34.5019C23.5179 34.7775 23.7386 35 24.0112 35C24.2254 35 24.4063 34.8606 24.4745 34.6675H26.3691L26.5184 34.4334L26.1692 33.6494C26.2583 33.5599 26.3135 33.4354 26.3135 33.2978C26.3135 33.0222 26.0927 32.7997 25.8201 32.7997C25.6944 32.7997 25.5808 32.8482 25.4941 32.9261L24.6636 32.5208C24.6655 32.5031 24.6687 32.4858 24.6687 32.4672C24.6687 32.1972 24.4554 31.9775 24.1888 31.97L23.2675 29.0973C23.3848 29.0063 23.4617 28.865 23.4617 28.7037C23.4617 28.5726 23.4107 28.4546 23.3291 28.366L24.4072 26.2893C24.4304 26.2926 24.4522 26.2968 24.4763 26.2968C24.7494 26.2968 24.9697 26.0738 24.9697 25.7987C24.9697 25.6107 24.8663 25.4503 24.7146 25.365L25.0555 23.2999C25.157 23.2822 25.2488 23.2332 25.3188 23.1628L28.1682 24.5367C28.1673 24.5516 28.1641 24.5661 28.1641 24.582C28.1641 24.7307 28.2299 24.8618 28.3314 24.9536L27.4175 27.4324C27.4175 27.4324 27.4124 27.4324 27.4101 27.4324C27.137 27.4324 26.9167 27.6553 26.9167 27.9304C26.9167 28.1244 27.0275 28.2905 27.1875 28.3725L26.811 31.2906C26.5894 31.3391 26.4229 31.5387 26.4229 31.777C26.4229 32.0526 26.6436 32.275 26.9163 32.275C26.9496 32.275 26.983 32.2718 27.0146 32.2643L28.1344 34.2314C28.0843 34.3093 28.0537 34.4026 28.0537 34.5015C28.0537 34.7771 28.2744 34.9995 28.5471 34.9995C28.7613 34.9995 28.9421 34.8601 29.0103 34.667H31.849L31.9923 34.4189L31.415 33.3994C31.4892 33.3118 31.536 33.1998 31.536 33.0767C31.536 32.8011 31.3153 32.5787 31.0427 32.5787C30.9068 32.5787 30.7835 32.6346 30.6935 32.7242L29.467 32.1319C29.4693 32.1151 29.4721 32.0983 29.4721 32.0801C29.4721 31.8763 29.3506 31.7014 29.1763 31.624L29.3562 29.1378C29.5862 29.0959 29.7596 28.893 29.7596 28.6491C29.7596 28.5339 29.7197 28.4308 29.6553 28.3464L30.9036 26.6074C30.9476 26.6199 30.9935 26.6297 31.0417 26.6297C31.2884 26.6297 31.4915 26.446 31.5281 26.2077L31.9181 26.1326C31.9946 26.2637 32.1272 26.3551 32.284 26.3742L32.4741 27.2267C32.3299 27.3134 32.2325 27.4715 32.2325 27.6529C32.2325 27.9286 32.4532 28.151 32.7259 28.151C32.7361 28.151 32.7458 28.1487 32.7551 28.1478L34.0256 31.5858C33.9157 31.6776 33.8438 31.8138 33.8438 31.9687C33.8438 32.2443 34.0645 32.4667 34.3372 32.4667C34.4095 32.4667 34.4772 32.4499 34.5389 32.4224L35.8238 33.8322C35.8048 33.8849 35.7923 33.9418 35.7923 34.002C35.7923 34.2776 36.013 34.5001 36.2856 34.5001C36.4846 34.5001 36.6547 34.3807 36.7331 34.21H39.4443L39.5792 33.9484L38.606 32.5502C38.6486 32.4765 38.675 32.3921 38.675 32.3012C38.675 32.0255 38.4543 31.8031 38.1817 31.8031C38.0426 31.8031 37.9169 31.8623 37.8274 31.9561L36.7521 31.5046C36.753 31.4897 36.7563 31.4762 36.7563 31.4626C36.7563 31.2029 36.5597 30.993 36.3088 30.9688L35.4598 27.4566C35.5855 27.3731 35.6689 27.2337 35.6805 27.0737L36.5411 26.8298C36.6311 26.9567 36.7762 27.0397 36.9427 27.0397C37.0786 27.0397 37.201 26.9837 37.2909 26.8951L38.19 27.3256C38.1891 27.3391 38.1858 27.3531 38.1858 27.3666C38.1858 27.5144 38.2508 27.645 38.3509 27.736L37.7746 29.1215C37.7653 29.1215 37.7569 29.1182 37.7472 29.1182C37.4741 29.1182 37.2538 29.3412 37.2538 29.6163C37.2538 29.8915 37.4745 30.1144 37.7472 30.1144C37.8038 30.1144 37.858 30.1027 37.9081 30.085L39.4387 32.012C39.3914 32.088 39.3636 32.1766 39.3636 32.2737C39.3636 32.5493 39.5843 32.7717 39.857 32.7717C40.1296 32.7717 40.3504 32.5493 40.3504 32.2737C40.3504 32.1491 40.3035 32.0372 40.2289 31.9495L40.8669 30.8191C40.892 30.8256 40.917 30.8275 40.9434 30.8298L41.2615 32.1594C41.1266 32.248 41.0366 32.401 41.0366 32.5763C41.0366 32.8519 41.2574 33.0744 41.53 33.0744C41.6993 33.0744 41.8499 32.9877 41.939 32.8557L43.9894 33.3971C44.046 33.6093 44.2361 33.7655 44.4642 33.7655C44.7374 33.7655 44.9576 33.5431 44.9576 33.2675C44.9576 33.1681 44.9284 33.0777 44.8793 32.9993L45.3967 32.1752C45.4324 32.1836 45.4691 32.1888 45.5066 32.1888C45.7797 32.1888 46 31.9663 46 31.6907C46 31.4151 45.7793 31.1926 45.5066 31.1926L45.5094 31.1978ZM39.8621 31.7793C39.8621 31.7793 39.8579 31.7793 39.8547 31.7793L38.8999 27.8148C39.0632 27.7336 39.1758 27.5657 39.1758 27.3694C39.1758 27.2757 39.1485 27.1889 39.1035 27.1138L42.0062 24.2201C42.0262 24.2326 42.0479 24.2452 42.0702 24.255L41.4252 27.5042C41.1609 27.5126 40.9485 27.7308 40.9485 27.9999C40.9485 28.2014 41.0677 28.3735 41.2369 28.4518L40.961 29.8425C40.6995 29.8551 40.4913 30.0715 40.4913 30.3382C40.4913 30.452 40.5312 30.5556 40.5938 30.64L39.9465 31.7858C39.9182 31.7807 39.889 31.7774 39.8598 31.7774L39.8621 31.7793ZM36.4563 26.5141L35.598 26.7571C35.5089 26.6293 35.3615 26.5449 35.1955 26.5449C35.029 26.5449 34.8797 26.6293 34.7907 26.7589L32.8362 25.9633C32.8404 25.9381 32.8436 25.9115 32.8436 25.8854C32.8436 25.7903 32.8163 25.704 32.7704 25.628L34.57 23.868C34.6474 23.9188 34.7392 23.9491 34.8389 23.9491C34.908 23.9491 34.9738 23.9342 35.0332 23.909L36.5847 26.2086C36.5105 26.2898 36.4632 26.397 36.4563 26.5141ZM34.8366 31.9509L35.8363 31.7028C35.9022 31.8241 36.0162 31.916 36.1539 31.9486L36.1424 33.5356C36.108 33.5473 36.0756 33.5608 36.044 33.5799L34.7828 32.1962C34.8162 32.1286 34.8371 32.0535 34.8371 31.9733C34.8371 31.9659 34.8352 31.9584 34.8352 31.9509H34.8366ZM33.1594 27.9052C33.2012 27.8316 33.2271 27.7481 33.2271 27.6571C33.2271 27.4072 33.043 27.201 32.8047 27.1665L32.6123 26.3066C32.6674 26.2706 32.7166 26.2254 32.7546 26.1704L34.7091 26.966C34.7049 26.9912 34.7017 27.0178 34.7017 27.0439C34.7017 27.3013 34.8959 27.5112 35.1449 27.5368L35.9833 31.0065L33.1594 27.9052ZM30.5776 33.2166L28.8995 34.1494C28.8104 34.0617 28.6894 34.0081 28.5554 34.0081C28.503 34.0081 28.4539 34.0188 28.407 34.0332L27.303 32.0946C27.3387 32.0503 27.3679 32.0008 27.3869 31.9458L28.4974 32.1198C28.5165 32.3781 28.7265 32.5819 28.988 32.5819C29.1239 32.5819 29.2472 32.526 29.3372 32.4364L30.5637 33.0287C30.5613 33.0455 30.5586 33.0623 30.5586 33.0805C30.5586 33.128 30.5669 33.1733 30.5794 33.2166H30.5776ZM27.8214 28.2163L28.7854 28.6057C28.7845 28.6216 28.7803 28.6374 28.7803 28.6533C28.7803 28.7661 28.8188 28.8697 28.8819 28.9532L27.1513 31.2705L27.5186 28.4201C27.6443 28.394 27.7514 28.3189 27.8214 28.2163ZM28.5281 31.9006L27.4101 31.7252C27.3985 31.6207 27.3558 31.5256 27.2909 31.451L29.0363 29.1145L28.8563 31.6049C28.707 31.6459 28.5856 31.756 28.529 31.8992L28.5281 31.9006ZM29.2737 28.1552C29.2737 28.1552 29.2718 28.1552 29.2704 28.1552L28.8271 25.0534C29.0186 24.9849 29.1564 24.8021 29.1564 24.5861C29.1564 24.4924 29.129 24.4066 29.0854 24.332L29.972 23.5079C30.036 23.5546 30.1111 23.5858 30.1927 23.5975L30.8085 25.704C30.6578 25.7894 30.5553 25.9498 30.5553 26.1368C30.5553 26.2422 30.5878 26.3392 30.643 26.4194L29.3863 28.1711C29.3497 28.1627 29.3122 28.1561 29.2732 28.1561L29.2737 28.1552ZM21.6853 25.9698C21.6622 25.9698 21.6413 25.974 21.6195 25.9764L20.7556 24.29C20.7672 24.2774 20.7788 24.2634 20.789 24.2499L23.9982 25.7063C23.9917 25.7381 23.989 25.7707 23.989 25.8043C23.989 25.8052 23.989 25.8066 23.989 25.8075L22.1268 26.2497C22.0461 26.0846 21.8801 25.9698 21.6853 25.9698ZM18.6968 25.4988C18.6876 25.4988 18.6792 25.5011 18.6695 25.5021L17.948 22.9725C18.0996 22.8872 18.203 22.7268 18.203 22.5388C18.203 22.3047 18.0421 22.1093 17.8265 22.0566L17.7008 20.8016C17.7008 20.8016 17.7059 20.7984 17.7082 20.7974L20.0086 23.6446C19.9437 23.729 19.9029 23.8334 19.9029 23.9496C19.9029 24.0414 19.9289 24.1268 19.9729 24.2019L18.8689 25.5324C18.8155 25.5123 18.758 25.4997 18.6973 25.4997L18.6968 25.4988ZM12.9396 14.0678L13.9802 14.1648C14.021 14.3989 14.2217 14.5766 14.4652 14.5766C14.4976 14.5766 14.5278 14.5734 14.5584 14.5673L15.2256 15.9044L12.9378 14.072C12.9378 14.072 12.9387 14.0678 12.9401 14.0669L12.9396 14.0678ZM16.0348 16.1944L16.7512 15.5686C16.8328 15.6287 16.9329 15.6656 17.0419 15.6656C17.0744 15.6656 17.1068 15.6623 17.1379 15.6563L17.6327 16.7727C17.596 16.8002 17.5645 16.8329 17.5367 16.8688L16.0895 16.4034C16.0862 16.3283 16.0663 16.2579 16.0338 16.1944H16.0348ZM35.3091 17.5968C35.3675 17.622 35.4324 17.636 35.5006 17.636C35.5822 17.636 35.6583 17.6136 35.7264 17.5781L36.9877 18.7683C36.9617 18.8294 36.9459 18.897 36.9459 18.9679C36.9459 19.1843 37.0827 19.3666 37.2742 19.4357L37.0568 21.2941C36.9 21.3109 36.766 21.4009 36.6877 21.5315L33.5684 20.5018C33.5684 20.4901 33.5716 20.4794 33.5716 20.4677C33.5716 20.3572 33.535 20.2555 33.4743 20.1734L35.3091 17.5968ZM32.6531 20.2191L29.538 19.3191C29.538 19.3097 29.5412 19.3013 29.5412 19.2925C29.5412 19.112 29.4448 18.9548 29.302 18.8681L30.4018 15.508C30.4208 15.5103 30.4385 15.5131 30.4584 15.5131C30.5025 15.5131 30.5442 15.5056 30.5841 15.4954L32.7954 20.0606C32.737 20.1021 32.6888 20.1571 32.6531 20.2191ZM26.1683 17.1094C26.1924 17.0511 26.2059 16.9868 26.2059 16.9206C26.2059 16.893 26.2017 16.8679 26.1975 16.8413L30.0383 15.2743C30.0782 15.3396 30.1315 15.3946 30.195 15.4357L29.0938 18.7991C29.078 18.7981 29.0636 18.7949 29.0479 18.7949C28.9213 18.7949 28.8063 18.8443 28.7196 18.9236L26.1692 17.1094H26.1683ZM26.1159 16.6356C26.0459 16.5335 25.9383 16.4593 25.8136 16.4332L25.7862 14.7343C25.9314 14.7058 26.0519 14.6107 26.121 14.4843L29.946 15.0733L26.1159 16.6356ZM25.5669 14.7254L25.5943 16.4369C25.3787 16.4906 25.2178 16.6851 25.2178 16.9192C25.2178 16.9467 25.2219 16.9719 25.2261 16.9984L23.8563 17.5576C23.7738 17.4247 23.6305 17.3347 23.4655 17.3263L22.6813 14.6764C22.7838 14.6172 22.8622 14.5244 22.9021 14.4106H25.2275C25.2813 14.565 25.4079 14.6844 25.5669 14.7254ZM20.508 23.4636L20.5298 19.563C20.5799 19.5513 20.6272 19.5313 20.6699 19.5061L24.5306 22.598C24.499 22.6633 24.4805 22.7352 24.4805 22.8121C24.4805 22.8154 24.4805 22.8172 24.4805 22.8205L20.8345 23.7238C20.7695 23.5942 20.6513 23.4972 20.5071 23.4631L20.508 23.4636ZM24.6678 22.426L20.8335 19.355C20.8859 19.2757 20.917 19.181 20.917 19.0784C20.917 19.0509 20.9128 19.0257 20.9087 18.9991L23.05 18.1252C23.1399 18.2422 23.28 18.3192 23.439 18.3192C23.4692 18.3192 23.4988 18.315 23.5267 18.3099L24.7313 22.3803C24.7082 22.3928 24.6873 22.4078 24.6664 22.4246L24.6678 22.426ZM22.4384 14.7436C22.449 14.7436 22.4592 14.7413 22.4708 14.7403L23.248 17.3636C23.0713 17.4396 22.947 17.6159 22.947 17.8225C22.947 17.8575 22.9512 17.892 22.9577 17.9251L20.8289 18.7935C20.7399 18.6648 20.5924 18.5803 20.4241 18.5803C20.2817 18.5803 20.1552 18.6414 20.0643 18.7384L18.3723 17.3837C18.4038 17.3184 18.4223 17.2466 18.4223 17.1696C18.4223 17.04 18.3723 16.9238 18.2916 16.8352L19.2714 15.4086C19.3279 15.4319 19.3896 15.4455 19.4554 15.4455C19.7095 15.4455 19.9163 15.2515 19.9437 15.0024L22.0248 14.5151C22.1124 14.6536 22.2654 14.745 22.4398 14.745L22.4384 14.7436ZM19.0914 15.2804L18.1117 16.707C18.0551 16.6837 17.9934 16.6701 17.9276 16.6701C17.8951 16.6701 17.8627 16.6734 17.8311 16.6795L17.3364 15.563C17.424 15.4954 17.4889 15.4002 17.5172 15.2897L19.0061 15.1535C19.027 15.2002 19.0562 15.2431 19.0896 15.2804H19.0914ZM18.235 17.5557L19.953 18.932C19.9395 18.9786 19.9289 19.0271 19.9289 19.0775C19.9289 19.3139 20.0921 19.5103 20.3096 19.562L20.2878 23.4627C20.2493 23.4711 20.2113 23.486 20.1769 23.5037L17.8766 20.6566C17.9415 20.5722 17.9823 20.4677 17.9823 20.3516C17.9823 20.1594 17.8733 19.9948 17.7157 19.9113L18.0263 17.6574C18.1047 17.6416 18.1747 17.6047 18.2345 17.5562L18.235 17.5557ZM24.0882 25.5021L20.879 24.0456C20.8855 24.0139 20.8883 23.9813 20.8883 23.9472C20.8883 23.944 20.8883 23.9421 20.8883 23.9388L24.5343 23.0355C24.5792 23.125 24.6483 23.1978 24.735 23.2468L24.3942 25.3118C24.2704 25.3342 24.1624 25.4041 24.0882 25.5021ZM25.2669 22.4143C25.1844 22.3532 25.0837 22.315 24.9743 22.315C24.9636 22.315 24.9534 22.3173 24.9419 22.3182L23.7298 18.2226C23.8522 18.1317 23.9329 17.9871 23.9329 17.8225C23.9329 17.8034 23.9296 17.7866 23.9278 17.7675L25.3082 17.2041C25.3972 17.3328 25.5447 17.4172 25.713 17.4172C25.8396 17.4172 25.9546 17.3678 26.0413 17.2885L28.5916 19.1027C28.5675 19.1605 28.554 19.2253 28.554 19.2915C28.554 19.375 28.5758 19.4529 28.6124 19.5215L25.2674 22.4129L25.2669 22.4143ZM29.4768 19.5313L32.5877 20.4304C32.5877 20.443 32.5835 20.4547 32.5835 20.4672C32.5835 20.5568 32.6086 20.6403 32.6503 20.713L30.5266 22.6867C30.4491 22.6358 30.3573 22.6055 30.2576 22.6055C30.215 22.6055 30.1742 22.613 30.1343 22.6232L29.2862 19.7243C29.3655 19.6791 29.4313 19.6124 29.4754 19.5313H29.4768ZM31.0482 25.635C31.038 25.635 31.0283 25.6373 31.0181 25.6383L30.4139 23.5741C30.6105 23.5089 30.7529 23.3242 30.7529 23.1036C30.7529 23.0084 30.7255 22.9212 30.6796 22.8462L32.7982 20.8772C32.8775 20.9322 32.9739 20.9648 33.0773 20.9648C33.1413 20.9648 33.2007 20.9523 33.2563 20.9299L34.5111 23.0784C34.4095 23.1693 34.3437 23.3009 34.3437 23.4496C34.3437 23.5448 34.372 23.6324 34.417 23.708L32.6164 25.4685C32.539 25.4177 32.4472 25.3874 32.348 25.3874C32.1013 25.3874 31.8982 25.5711 31.8615 25.8094L31.4716 25.8845C31.3858 25.7367 31.2291 25.6364 31.0468 25.6364L31.0482 25.635ZM35.1607 23.0761C35.074 22.9991 34.9623 22.9516 34.8375 22.9516C34.7907 22.9516 34.7466 22.9599 34.7035 22.9725L33.4372 20.8049C33.4631 20.7774 33.484 20.7457 33.503 20.713L36.6181 21.7409C36.6172 21.7558 36.6139 21.7703 36.6139 21.7861C36.6139 21.8556 36.6288 21.9214 36.6538 21.9815L35.1598 23.0761H35.1607ZM37.2742 21.3179L37.4917 19.4594C37.5534 19.4529 37.6118 19.4352 37.6642 19.4077L39.2523 20.9075C39.2264 20.9686 39.2106 21.0362 39.2106 21.1071C39.2106 21.3151 39.3372 21.4932 39.5171 21.5674L39.1457 23.8055C39.0766 23.8097 39.0117 23.8278 38.9533 23.8572L37.4987 22.0874C37.5626 22.003 37.6021 21.8994 37.6021 21.7856C37.6025 21.5693 37.4653 21.3864 37.2742 21.3179ZM39.2064 24.7951C39.4638 24.7783 39.6687 24.5638 39.6687 24.3003C39.6687 24.0923 39.5421 23.9141 39.3622 23.84L39.7337 21.6014C39.7953 21.5972 39.8538 21.5837 39.908 21.5595L41.83 23.5751C41.7957 23.6427 41.7748 23.7187 41.7748 23.7999C41.7748 23.8969 41.8031 23.9869 41.8513 24.0638L38.9519 26.9534C38.9259 26.9352 38.8976 26.9208 38.8684 26.9091L39.2064 24.7951ZM44.027 28.9835C44.027 28.9961 44.0302 29.0077 44.0302 29.0194L43.4288 29.2064C43.343 29.0576 43.1863 28.9564 43.0032 28.9564C42.909 28.9564 42.8232 28.9839 42.7481 29.0301L41.875 28.2336C41.9051 28.1757 41.9241 28.1109 41.9302 28.0414L44.3154 27.7672C44.3446 27.8968 44.4253 28.0078 44.5338 28.0764L44.4513 28.4933C44.2129 28.5283 44.0279 28.734 44.0279 28.9839L44.027 28.9835ZM44.3145 27.5443L41.8991 27.8218C41.8518 27.6996 41.7577 27.6002 41.6385 27.5461L42.2835 24.297C42.3211 24.2961 42.3568 24.2895 42.3911 24.2811L44.4183 27.3353C44.3683 27.3955 44.3307 27.4664 44.3126 27.5443H44.3145ZM41.1753 29.8807L41.4493 28.4985C41.555 28.4966 41.6524 28.4607 41.7317 28.4015L42.5891 29.1835C42.539 29.2614 42.5084 29.3547 42.5084 29.455C42.5084 29.6135 42.5826 29.7525 42.6976 29.8444L41.6385 32.0964C41.6209 32.0922 41.6019 32.0913 41.5829 32.089L41.2629 30.7496C41.3914 30.66 41.4762 30.5099 41.4762 30.3401C41.4767 30.1331 41.3519 29.9568 41.1753 29.8807ZM41.836 32.192L42.8951 29.94C42.9294 29.9474 42.9651 29.9526 43.0018 29.9526C43.0249 29.9526 43.0467 29.9484 43.0685 29.946L44.1675 32.8776C44.1026 32.927 44.0502 32.9914 44.0168 33.0665L42.0211 32.539C42.0099 32.3986 41.9408 32.2751 41.836 32.192ZM44.4652 32.7745C44.4318 32.7745 44.3993 32.7778 44.3678 32.7839L43.2753 29.8682C43.2879 29.8598 43.2985 29.849 43.3097 29.8397L45.0777 31.4524C45.0378 31.5242 45.0128 31.6063 45.0128 31.694C45.0128 31.8101 45.0536 31.9155 45.1194 31.9999L44.6177 32.7997C44.5695 32.7838 44.5185 32.7722 44.4652 32.7722V32.7745ZM45.1635 31.2327L43.4474 29.6676C43.4775 29.6033 43.4965 29.5314 43.4965 29.4545C43.4965 29.4419 43.4933 29.4302 43.4933 29.4186L44.0947 29.2316C44.1805 29.3803 44.3372 29.4815 44.5204 29.4815C44.5227 29.4815 44.5245 29.4815 44.5264 29.4815L45.1644 31.2332L45.1635 31.2327ZM35.1306 17.4662L33.305 20.0284C33.2359 19.9916 33.1599 19.9692 33.076 19.9692C33.0486 19.9692 33.0226 19.9734 32.9967 19.9776L30.7746 15.3923C30.7978 15.3722 30.8187 15.3513 30.8372 15.327L35.0082 17.1085C35.0082 17.1178 35.0049 17.1276 35.0049 17.1379C35.0049 17.2643 35.0531 17.3785 35.1292 17.4662H35.1306ZM16.549 15.1442C16.549 15.1517 16.5472 15.1591 16.5472 15.1675C16.5472 15.2519 16.5703 15.3303 16.607 15.3998L15.8915 16.0247C15.809 15.9627 15.7074 15.9235 15.5966 15.9235C15.5581 15.9235 15.5215 15.9286 15.4858 15.937L14.7568 14.4764C14.7768 14.4614 14.7967 14.4456 14.8134 14.4279L16.5481 15.1433L16.549 15.1442ZM14.0075 13.8906C14.0001 13.9074 13.9959 13.9265 13.9908 13.9442L12.9586 13.8482C12.9262 13.6043 12.7222 13.4154 12.4713 13.4154C12.4388 13.4154 12.4064 13.4187 12.3753 13.4247L11.8597 12.5475C11.894 12.5083 11.9237 12.4649 11.9445 12.4178L12.667 12.5298L12.6846 12.5564L14.0084 13.8925L14.0075 13.8906ZM11.7707 11.1088L11.5615 11.6913L11.3733 10.5412L11.5931 10.6349C11.5875 10.6634 11.5847 10.6923 11.5847 10.7217C11.5847 10.8788 11.658 11.0174 11.7707 11.1078V11.1088ZM12.5538 12.2877L11.9849 12.2001C11.9798 12.0303 11.8908 11.8825 11.7572 11.7971L11.9687 11.2072C12.0044 11.2156 12.041 11.2207 12.0785 11.2207C12.0785 11.2207 12.0809 11.2207 12.0818 11.2207L12.5543 12.2887L12.5538 12.2877ZM11.639 8.68182L11.8082 8.51067L11.8583 10.2796C11.7883 10.3155 11.728 10.3673 11.6816 10.4316L11.3515 10.2898L11.6399 8.68182H11.639ZM17.6535 23.0294C17.6725 23.0318 17.6902 23.0346 17.7101 23.0346C17.7194 23.0346 17.7277 23.0322 17.7375 23.0313L18.459 25.5608C18.3073 25.6462 18.2039 25.8066 18.2039 25.9946C18.2039 26.0571 18.2165 26.1149 18.2364 26.1699L16.5884 27.5723C16.555 27.5522 16.5193 27.5373 16.4818 27.5256L16.6186 25.434C16.8578 25.4004 17.0433 25.1943 17.0433 24.9434C17.0433 24.8039 16.9867 24.6794 16.8959 24.5889L17.654 23.028V23.0294H17.6535ZM17.4954 31.791L15.6416 32.6668C15.5989 32.6099 15.5433 32.5633 15.4807 32.5297L15.8382 31.0588C15.8382 31.0588 15.8433 31.0588 15.8465 31.0588C15.9764 31.0588 16.0946 31.007 16.1822 30.9235L17.5061 31.6179C17.4968 31.6557 17.4903 31.6958 17.4903 31.7373C17.4903 31.7551 17.4936 31.7732 17.4954 31.79V31.791ZM14.021 30.1918C14.6701 30.3672 15.0875 30.4777 15.3541 30.5486C15.3541 30.5528 15.3531 30.557 15.3531 30.5621C15.3531 30.7561 15.4649 30.9231 15.6263 31.0051L15.2688 32.4733C15.2623 32.4733 15.2572 32.4709 15.2521 32.4709C15.2261 32.4709 15.202 32.4751 15.1769 32.4784L13.9565 30.2856C13.9815 30.2571 14.0024 30.2254 14.0205 30.1904L14.021 30.1918ZM15.4097 30.3345C15.0555 30.2408 14.5473 30.1046 14.0775 29.9778C14.0775 29.9712 14.0798 29.9661 14.0798 29.96C14.0798 29.7954 14.0006 29.6518 13.8791 29.5613L14.4888 27.5391C14.6321 27.5326 14.7578 27.4641 14.8431 27.361L15.8627 27.8824C15.8535 27.9216 15.847 27.9603 15.847 28.0027C15.847 28.1851 15.9453 28.3436 16.0909 28.4299L15.7742 30.072C15.6147 30.0957 15.4807 30.196 15.4097 30.3345ZM16.3988 25.4177L16.262 27.5126C16.1419 27.5317 16.0371 27.5946 15.962 27.6856L14.9423 27.1642C14.9516 27.125 14.9581 27.0863 14.9581 27.0439C14.9581 26.9669 14.9391 26.8951 14.9089 26.8298L16.332 25.3902C16.3538 25.4009 16.3761 25.4093 16.3988 25.4167V25.4177ZM18.1858 32.8417L15.8539 32.8109L17.5668 32.0013C17.6535 32.1417 17.8075 32.2354 17.9841 32.2354C17.9865 32.2354 17.9883 32.2354 17.9892 32.2354L18.1858 32.8417ZM21.677 26.9651C21.677 26.9651 21.6821 26.9651 21.6844 26.9651C21.9571 26.9651 22.1778 26.7421 22.1778 26.467C22.1778 26.4661 22.1778 26.4647 22.1778 26.4637L24.04 26.0216C24.0608 26.065 24.0882 26.1051 24.1207 26.141L23.0426 28.2177C23.0194 28.2144 22.9976 28.2102 22.9735 28.2102C22.7277 28.2102 22.526 28.3917 22.4885 28.6281L21.2787 28.7051C21.2504 28.6099 21.1961 28.5278 21.1229 28.4667L21.677 26.9641V26.9651ZM25.3443 33.413L24.2004 34.044C24.1429 34.0206 24.0812 34.0071 24.0154 34.0071C23.9361 34.0071 23.8619 34.0281 23.7947 34.0621L22.6081 32.913C22.6382 32.858 22.6582 32.796 22.6665 32.7307L23.7145 32.6281C23.7794 32.8263 23.9625 32.9699 24.1809 32.9699C24.3168 32.9699 24.4392 32.9149 24.5282 32.8254L25.3406 33.2208C25.3365 33.2474 25.3323 33.2735 25.3323 33.301C25.3323 33.3388 25.3374 33.3761 25.3457 33.412L25.3443 33.413ZM21.2921 28.9266L22.5019 28.8496C22.5427 28.9867 22.6378 29.0987 22.7644 29.1588L22.1194 32.1603L21.1145 29.2348C21.2077 29.1598 21.2736 29.052 21.2935 28.9275L21.2921 28.9266ZM23.6922 32.407L22.6424 32.5096C22.5923 32.3637 22.4792 32.2508 22.335 32.2014L22.9707 29.2414L23.8805 32.0782C23.7789 32.1575 23.7098 32.2737 23.6922 32.4084V32.407ZM24.4786 34.3382C24.4587 34.2832 24.4304 34.2328 24.3938 34.1885L25.4403 33.6102C25.5303 33.724 25.6685 33.7982 25.8243 33.7982C25.8419 33.7982 25.8586 33.7949 25.8753 33.7931L26.1178 34.3378H24.4772L24.4786 34.3382ZM25.4635 22.8662C25.4658 22.8494 25.4686 22.8326 25.4686 22.8144C25.4686 22.731 25.4468 22.6531 25.4102 22.5845L28.7553 19.6931C28.8378 19.7542 28.9384 19.7924 29.0479 19.7924C29.0585 19.7924 29.0678 19.7906 29.078 19.7892L29.9386 22.7314C29.8343 22.8233 29.767 22.9562 29.767 23.1059C29.767 23.1913 29.7902 23.2705 29.8278 23.34L28.9338 24.1706C28.8554 24.1189 28.7622 24.0885 28.6621 24.0885C28.5239 24.0885 28.3987 24.1464 28.3097 24.2396L25.4635 22.8676V22.8662ZM28.618 25.1453L29.0562 28.2079C28.9727 28.2499 28.9023 28.3147 28.8531 28.3949L27.9007 28.0106C27.9049 27.9855 27.9081 27.9598 27.9081 27.9337C27.9081 27.7807 27.8381 27.6445 27.7305 27.5536L28.618 25.1453ZM29.0177 34.3392C29.0177 34.3392 29.0177 34.3373 29.0177 34.3359L30.6833 33.4102C30.7733 33.5128 30.904 33.5781 31.0505 33.5781C31.0807 33.5781 31.109 33.5739 31.1382 33.5697L31.5741 34.3392H29.0186H29.0177ZM33.1311 28.2018L35.8549 31.1926C35.8034 31.2705 35.7742 31.3647 35.7742 31.465C35.7742 31.4734 35.7765 31.4818 35.7765 31.4902L34.7782 31.7378C34.6947 31.5816 34.5333 31.4752 34.3451 31.4752C34.3442 31.4752 34.3432 31.4752 34.3418 31.4752L33.1311 28.2018ZM36.7711 33.8826C36.7618 33.8458 36.747 33.8098 36.7303 33.7758L37.9336 32.7279C38.0087 32.7745 38.0959 32.803 38.19 32.803C38.2508 32.803 38.3092 32.7904 38.3625 32.7703L39.1364 33.8826H36.7711ZM37.7008 32.2625C37.6999 32.276 37.6967 32.29 37.6967 32.3044C37.6967 32.4038 37.7259 32.4956 37.7759 32.5735L36.588 33.6079C36.523 33.5594 36.4465 33.5277 36.3631 33.516L36.3747 31.9509C36.4706 31.9299 36.5564 31.88 36.6227 31.8106L37.7008 32.2634V32.2625ZM37.4351 26.5976C37.4374 26.5794 37.4402 26.5626 37.4402 26.5449C37.4402 26.2692 37.2195 26.0468 36.9469 26.0468C36.8829 26.0468 36.8226 26.0603 36.766 26.0827L35.2103 23.777C35.2854 23.6893 35.3337 23.5765 35.3337 23.451C35.3337 23.3815 35.3188 23.3158 35.2938 23.2556L36.7878 22.1611C36.8745 22.238 36.9863 22.2856 37.111 22.2856C37.1917 22.2856 37.2659 22.2646 37.3327 22.2306L38.7873 24.0004C38.7237 24.0848 38.6839 24.1883 38.6839 24.3021C38.6839 24.5111 38.8114 24.6892 38.9922 24.7634L38.6533 26.876C38.5257 26.8844 38.4117 26.9394 38.3282 27.0257L37.4351 26.5976ZM38.6597 27.8661C38.6681 27.8661 38.6755 27.8684 38.6839 27.8684C38.6862 27.8684 38.6871 27.8684 38.689 27.8684L39.6089 31.693L38.1701 29.8821C38.2169 29.8061 38.2452 29.7175 38.2452 29.6205C38.2452 29.475 38.1812 29.3449 38.0834 29.2535L38.6607 27.8656L38.6597 27.8661Z" fill="white" stroke="white" stroke-width="0.1"/>
</g>
<defs>
<clipPath id="clip0_1_23">
<rect width="237" height="45" fill="white"/>
</clipPath>
</defs>
</svg>
