<svg width="225" height="45" viewBox="0 0 225 45" fill="none" xmlns="http://www.w3.org/2000/svg">
<g clip-path="url(#clip0_1_2)">
<path d="M217 0H8C3.58172 0 0 3.58172 0 8V36.9041C0 41.3224 3.58172 44.9041 8 44.9041H217C221.418 44.9041 225 41.3224 225 36.9041V8C225 3.58172 221.418 0 217 0Z" fill="#33318F"/>
<path d="M64.541 27.1669V29.4521H56.9727V27.1669H64.541ZM57.9297 15.2333V29.4521H55V15.2333H57.9297ZM63.5547 21.0243V23.2509H56.9727V21.0243H63.5547ZM64.5313 15.2333V17.5282H56.9727V15.2333H64.5313ZM68.8282 21.1415V29.4521H66.0157V18.8857H68.6524L68.8282 21.1415ZM68.418 23.7978H67.6563C67.6563 23.0165 67.7572 22.3134 67.959 21.6884C68.1608 21.0569 68.444 20.5198 68.8086 20.0771C69.1732 19.6278 69.6062 19.286 70.1075 19.0517C70.6153 18.8108 71.1817 18.6903 71.8067 18.6903C72.3015 18.6903 72.7539 18.762 73.1641 18.9052C73.5743 19.0484 73.9258 19.2763 74.2188 19.5888C74.5183 19.9013 74.7461 20.3147 74.9024 20.829C75.0651 21.3433 75.1465 21.9716 75.1465 22.7138V29.4521H72.3145V22.704C72.3145 22.2353 72.2494 21.8707 72.1192 21.6103C71.989 21.3498 71.7969 21.1676 71.543 21.0634C71.2956 20.9527 70.9896 20.8974 70.625 20.8974C70.2474 20.8974 69.9187 20.9722 69.6387 21.122C69.3653 21.2717 69.1374 21.4801 68.9551 21.747C68.7793 22.0074 68.6459 22.3134 68.5547 22.6649C68.4636 23.0165 68.418 23.3941 68.418 23.7978ZM82.461 18.8857V20.8778H76.3086V18.8857H82.461ZM77.8321 16.2782H80.6446V26.2685C80.6446 26.5745 80.6836 26.8088 80.7617 26.9716C80.8464 27.1343 80.9701 27.2483 81.1328 27.3134C81.2956 27.372 81.5007 27.4013 81.7481 27.4013C81.9239 27.4013 82.0801 27.3948 82.2168 27.3817C82.3601 27.3622 82.4805 27.3427 82.5782 27.3232L82.5879 29.3935C82.347 29.4716 82.0866 29.5334 81.8067 29.579C81.5267 29.6246 81.2175 29.6474 80.8789 29.6474C80.2604 29.6474 79.7201 29.5465 79.2578 29.3446C78.8021 29.1363 78.4506 28.8043 78.2032 28.3485C77.9558 27.8928 77.8321 27.2939 77.8321 26.5517V16.2782ZM88.9258 29.6474C88.1055 29.6474 87.3698 29.5172 86.7188 29.2567C86.0677 28.9898 85.5144 28.622 85.0586 28.1532C84.6094 27.6845 84.2644 27.1409 84.0235 26.5224C83.7826 25.8974 83.6621 25.2333 83.6621 24.5302V24.1396C83.6621 23.3388 83.7761 22.6064 84.0039 21.9423C84.2318 21.2782 84.5573 20.7021 84.9805 20.2138C85.4102 19.7255 85.931 19.3511 86.543 19.0907C87.155 18.8238 87.8451 18.6903 88.6133 18.6903C89.362 18.6903 90.0261 18.814 90.6055 19.0614C91.1849 19.3088 91.67 19.6604 92.0606 20.1161C92.4577 20.5718 92.7572 21.1187 92.959 21.7567C93.1608 22.3883 93.2617 23.0914 93.2617 23.8661V25.038H84.8633V23.163H90.4981V22.9482C90.4981 22.5575 90.4265 22.2092 90.2832 21.9032C90.1465 21.5907 89.9382 21.3433 89.6582 21.161C89.3783 20.9787 89.0202 20.8876 88.584 20.8876C88.2129 20.8876 87.8939 20.969 87.627 21.1317C87.3601 21.2945 87.142 21.5224 86.9727 21.8153C86.8099 22.1083 86.6862 22.4534 86.6016 22.8505C86.5235 23.2411 86.4844 23.6708 86.4844 24.1396V24.5302C86.4844 24.9534 86.543 25.344 86.6602 25.7021C86.7839 26.0601 86.9564 26.3694 87.1778 26.6298C87.4056 26.8902 87.6791 27.092 87.9981 27.2353C88.3236 27.3785 88.6914 27.4501 89.1016 27.4501C89.6094 27.4501 90.0814 27.3524 90.5176 27.1571C90.9603 26.9553 91.3412 26.6526 91.6602 26.2489L93.0274 27.7333C92.806 28.0523 92.5033 28.3583 92.1192 28.6513C91.7416 28.9442 91.2858 29.1851 90.752 29.3739C90.2181 29.5562 89.6094 29.6474 88.9258 29.6474ZM97.6758 21.1903V29.4521H94.8633V18.8857H97.5098L97.6758 21.1903ZM100.859 18.8173L100.811 21.4247C100.674 21.4052 100.507 21.3889 100.312 21.3759C100.124 21.3564 99.9515 21.3466 99.7945 21.3466C99.3978 21.3466 99.0528 21.3987 98.7598 21.5028C98.4733 21.6005 98.2325 21.747 98.0371 21.9423C97.8483 22.1376 97.7051 22.3752 97.6075 22.6552C97.5163 22.9351 97.4642 23.2541 97.4512 23.6122L96.8848 23.4364C96.8848 22.7528 96.9532 22.1246 97.0899 21.5517C97.2266 20.9722 97.4252 20.4677 97.6856 20.038C97.9525 19.6083 98.278 19.2763 98.6621 19.0419C99.0463 18.8075 99.4857 18.6903 99.9805 18.6903C100.136 18.6903 100.296 18.7034 100.459 18.7294C100.621 18.7489 100.755 18.7782 100.859 18.8173ZM105 20.9169V33.5146H102.188V18.8857H104.795L105 20.9169ZM111.689 24.0517V24.2567C111.689 25.025 111.598 25.7379 111.416 26.3954C111.24 27.053 110.979 27.6259 110.634 28.1142C110.289 28.5959 109.86 28.9735 109.345 29.247C108.837 29.5139 108.252 29.6474 107.588 29.6474C106.944 29.6474 106.384 29.5172 105.909 29.2567C105.433 28.9963 105.032 28.6317 104.707 28.163C104.388 27.6877 104.131 27.1376 103.936 26.5126C103.741 25.8876 103.59 25.217 103.486 24.5009V23.9638C103.59 23.1955 103.741 22.4924 103.936 21.8544C104.131 21.2099 104.388 20.6532 104.707 20.1845C105.032 19.7092 105.429 19.3414 105.898 19.081C106.373 18.8205 106.93 18.6903 107.568 18.6903C108.238 18.6903 108.829 18.8173 109.336 19.0712C109.851 19.3251 110.279 19.6897 110.625 20.1649C110.976 20.6402 111.24 21.2066 111.416 21.8642C111.598 22.5217 111.689 23.2509 111.689 24.0517ZM108.868 24.2567V24.0517C108.868 23.6024 108.828 23.189 108.75 22.8114C108.678 22.4273 108.561 22.092 108.398 21.8056C108.242 21.5191 108.033 21.2978 107.773 21.1415C107.519 20.9787 107.21 20.8974 106.845 20.8974C106.461 20.8974 106.132 20.9592 105.859 21.0829C105.592 21.2066 105.374 21.3857 105.205 21.62C105.035 21.8544 104.909 22.1343 104.825 22.4599C104.74 22.7854 104.688 23.1532 104.669 23.5634V24.9208C104.701 25.4026 104.791 25.8355 104.941 26.2196C105.091 26.5972 105.322 26.8967 105.634 27.1181C105.947 27.3394 106.358 27.4501 106.866 27.4501C107.237 27.4501 107.548 27.3687 107.802 27.206C108.056 27.0367 108.262 26.8056 108.419 26.5126C108.581 26.2196 108.694 25.8811 108.759 25.497C108.831 25.1129 108.868 24.6995 108.868 24.2567ZM116.25 21.1903V29.4521H113.438V18.8857H116.084L116.25 21.1903ZM119.434 18.8173L119.384 21.4247C119.248 21.4052 119.082 21.3889 118.886 21.3759C118.697 21.3564 118.525 21.3466 118.369 21.3466C117.972 21.3466 117.626 21.3987 117.334 21.5028C117.047 21.6005 116.806 21.747 116.611 21.9423C116.422 22.1376 116.279 22.3752 116.181 22.6552C116.09 22.9351 116.038 23.2541 116.025 23.6122L115.459 23.4364C115.459 22.7528 115.527 22.1246 115.664 21.5517C115.8 20.9722 115.999 20.4677 116.259 20.038C116.526 19.6083 116.852 19.2763 117.236 19.0419C117.62 18.8075 118.059 18.6903 118.554 18.6903C118.71 18.6903 118.871 18.7034 119.034 18.7294C119.196 18.7489 119.33 18.7782 119.434 18.8173ZM123.73 18.8857V29.4521H120.909V18.8857H123.73ZM120.732 16.1317C120.732 15.7216 120.875 15.383 121.162 15.1161C121.448 14.8492 121.832 14.7157 122.314 14.7157C122.789 14.7157 123.17 14.8492 123.457 15.1161C123.75 15.383 123.896 15.7216 123.896 16.1317C123.896 16.5419 123.75 16.8804 123.457 17.1474C123.17 17.4143 122.789 17.5478 122.314 17.5478C121.832 17.5478 121.448 17.4143 121.162 17.1474C120.875 16.8804 120.732 16.5419 120.732 16.1317ZM131.768 26.5321C131.768 26.3303 131.709 26.148 131.591 25.9853C131.474 25.8225 131.257 25.6728 130.938 25.536C130.625 25.3928 130.173 25.2626 129.581 25.1454C129.047 25.0282 128.548 24.8817 128.085 24.706C127.63 24.5237 127.234 24.3056 126.895 24.0517C126.563 23.7978 126.303 23.4983 126.114 23.1532C125.925 22.8017 125.83 22.4013 125.83 21.9521C125.83 21.5093 125.925 21.0927 126.114 20.7021C126.309 20.3114 126.585 19.9664 126.943 19.6669C127.307 19.3609 127.75 19.1233 128.271 18.954C128.798 18.7782 129.391 18.6903 130.048 18.6903C130.966 18.6903 131.755 18.8368 132.413 19.1298C133.077 19.4228 133.585 19.8264 133.936 20.3407C134.294 20.8485 134.473 21.428 134.473 22.079H131.66C131.66 21.8056 131.601 21.5614 131.484 21.3466C131.373 21.1252 131.198 20.9527 130.958 20.829C130.723 20.6988 130.417 20.6337 130.04 20.6337C129.727 20.6337 129.457 20.689 129.229 20.7997C129.001 20.9039 128.824 21.0471 128.701 21.2294C128.584 21.4052 128.525 21.6005 128.525 21.8153C128.525 21.9781 128.558 22.1246 128.624 22.2548C128.695 22.3785 128.808 22.4924 128.964 22.5966C129.121 22.7008 129.322 22.7984 129.57 22.8896C129.824 22.9742 130.136 23.0523 130.507 23.1239C131.269 23.2802 131.949 23.4853 132.548 23.7392C133.147 23.9866 133.624 24.3251 133.975 24.7548C134.327 25.178 134.501 25.7346 134.501 26.4247C134.501 26.8935 134.397 27.3232 134.189 27.7138C133.981 28.1044 133.682 28.4462 133.292 28.7392C132.901 29.0256 132.432 29.2502 131.885 29.413C131.345 29.5692 130.736 29.6474 130.059 29.6474C129.076 29.6474 128.243 29.4716 127.559 29.12C126.882 28.7685 126.368 28.3225 126.016 27.7821C125.671 27.2353 125.498 26.6754 125.498 26.1024H128.165C128.178 26.4866 128.275 26.7958 128.458 27.0302C128.646 27.2646 128.883 27.4338 129.169 27.538C129.462 27.6422 129.778 27.6942 130.117 27.6942C130.481 27.6942 130.784 27.6454 131.025 27.5478C131.266 27.4436 131.448 27.3069 131.572 27.1376C131.702 26.9618 131.768 26.76 131.768 26.5321ZM141.191 29.6474C140.371 29.6474 139.635 29.5172 138.984 29.2567C138.333 28.9898 137.779 28.622 137.324 28.1532C136.875 27.6845 136.53 27.1409 136.29 26.5224C136.049 25.8974 135.928 25.2333 135.928 24.5302V24.1396C135.928 23.3388 136.042 22.6064 136.27 21.9423C136.498 21.2782 136.823 20.7021 137.247 20.2138C137.676 19.7255 138.197 19.3511 138.809 19.0907C139.421 18.8238 140.11 18.6903 140.878 18.6903C141.627 18.6903 142.292 18.814 142.872 19.0614C143.451 19.3088 143.935 19.6604 144.326 20.1161C144.723 20.5718 145.023 21.1187 145.225 21.7567C145.427 22.3883 145.527 23.0914 145.527 23.8661V25.038H137.128V23.163H142.764V22.9482C142.764 22.5575 142.692 22.2092 142.548 21.9032C142.412 21.5907 142.203 21.3433 141.923 21.161C141.643 20.9787 141.286 20.8876 140.85 20.8876C140.479 20.8876 140.16 20.969 139.893 21.1317C139.626 21.2945 139.407 21.5224 139.238 21.8153C139.075 22.1083 138.951 22.4534 138.867 22.8505C138.789 23.2411 138.751 23.6708 138.751 24.1396V24.5302C138.751 24.9534 138.809 25.344 138.926 25.7021C139.05 26.0601 139.222 26.3694 139.443 26.6298C139.671 26.8902 139.945 27.092 140.264 27.2353C140.59 27.3785 140.957 27.4501 141.367 27.4501C141.875 27.4501 142.347 27.3524 142.783 27.1571C143.225 26.9553 143.607 26.6526 143.926 26.2489L145.292 27.7333C145.071 28.0523 144.769 28.3583 144.385 28.6513C144.008 28.9442 143.552 29.1851 143.018 29.3739C142.484 29.5562 141.875 29.6474 141.191 29.6474ZM161.699 27.9189V29.4521H154.169V27.9189H161.699ZM154.551 15.2333V29.4521H152.667V15.2333H154.551ZM160.704 21.3466V22.8798H154.169V21.3466H160.704ZM161.602 15.2333V16.7763H154.169V15.2333H161.602ZM170.225 27.4013V14.4521H172.042V29.4521H170.38L170.225 27.4013ZM163.115 24.286V24.081C163.115 23.2737 163.212 22.5412 163.408 21.8837C163.61 21.2196 163.893 20.65 164.257 20.1747C164.628 19.6995 165.068 19.3349 165.576 19.081C166.09 18.8205 166.663 18.6903 167.294 18.6903C167.959 18.6903 168.538 18.8075 169.033 19.0419C169.534 19.2698 169.958 19.6051 170.303 20.0478C170.655 20.484 170.931 21.0113 171.132 21.6298C171.334 22.2483 171.475 22.9482 171.553 23.7294V24.6278C171.482 25.4026 171.341 26.0992 171.132 26.7177C170.931 27.3362 170.655 27.8635 170.303 28.2997C169.958 28.7359 169.534 29.0712 169.033 29.3056C168.531 29.5334 167.945 29.6474 167.275 29.6474C166.656 29.6474 166.09 29.5139 165.576 29.247C165.068 28.9801 164.628 28.6057 164.257 28.1239C163.893 27.6422 163.61 27.0758 163.408 26.4247C163.212 25.7672 163.115 25.0543 163.115 24.286ZM164.932 24.081V24.286C164.932 24.8134 164.983 25.3082 165.087 25.7704C165.198 26.2327 165.368 26.6396 165.596 26.9911C165.824 27.3427 166.113 27.6194 166.464 27.8212C166.816 28.0165 167.237 28.1142 167.725 28.1142C168.324 28.1142 168.815 27.9872 169.199 27.7333C169.589 27.4794 169.903 27.1441 170.137 26.7274C170.372 26.3108 170.554 25.8583 170.684 25.37V23.0165C170.606 22.6584 170.491 22.3134 170.341 21.9814C170.198 21.6428 170.009 21.3433 169.775 21.0829C169.547 20.816 169.265 20.6044 168.926 20.4482C168.594 20.2919 168.2 20.2138 167.745 20.2138C167.25 20.2138 166.822 20.3179 166.464 20.5263C166.113 20.7281 165.824 21.008 165.596 21.3661C165.368 21.7177 165.198 22.1278 165.087 22.5966C164.983 23.0588 164.932 23.5536 164.932 24.081ZM176.816 18.8857V29.4521H175.001V18.8857H176.816ZM174.863 16.0829C174.863 15.7899 174.951 15.5426 175.126 15.3407C175.309 15.1389 175.577 15.038 175.928 15.038C176.273 15.038 176.537 15.1389 176.719 15.3407C176.908 15.5426 177.001 15.7899 177.001 16.0829C177.001 16.3629 176.908 16.6037 176.719 16.8056C176.537 17.0009 176.273 17.0985 175.928 17.0985C175.577 17.0985 175.309 17.0009 175.126 16.8056C174.951 16.6037 174.863 16.3629 174.863 16.0829ZM184.141 18.8857V20.2724H178.428V18.8857H184.141ZM180.361 16.3173H182.169V26.8349C182.169 27.1929 182.224 27.4631 182.335 27.6454C182.445 27.8277 182.588 27.9482 182.764 28.0067C182.94 28.0653 183.129 28.0946 183.331 28.0946C183.48 28.0946 183.636 28.0816 183.798 28.0556C183.968 28.023 184.096 27.997 184.18 27.9774L184.189 29.4521C184.046 29.4976 183.858 29.5399 183.624 29.579C183.396 29.6246 183.118 29.6474 182.792 29.6474C182.35 29.6474 181.943 29.5595 181.572 29.3837C181.201 29.2079 180.905 28.9149 180.684 28.5048C180.469 28.0881 180.361 27.5282 180.361 26.8251V16.3173ZM188.223 18.8857V29.4521H186.406V18.8857H188.223ZM186.27 16.0829C186.27 15.7899 186.357 15.5426 186.533 15.3407C186.715 15.1389 186.983 15.038 187.335 15.038C187.68 15.038 187.943 15.1389 188.126 15.3407C188.314 15.5426 188.408 15.7899 188.408 16.0829C188.408 16.3629 188.314 16.6037 188.126 16.8056C187.943 17.0009 187.68 17.0985 187.335 17.0985C186.983 17.0985 186.715 17.0009 186.533 16.8056C186.357 16.6037 186.27 16.3629 186.27 16.0829ZM190.645 24.286V24.0614C190.645 23.2997 190.756 22.5933 190.977 21.9423C191.198 21.2847 191.517 20.7151 191.934 20.2333C192.351 19.745 192.854 19.3674 193.447 19.1005C194.039 18.8271 194.703 18.6903 195.439 18.6903C196.181 18.6903 196.848 18.8271 197.441 19.1005C198.04 19.3674 198.548 19.745 198.964 20.2333C199.388 20.7151 199.711 21.2847 199.932 21.9423C200.154 22.5933 200.264 23.2997 200.264 24.0614V24.286C200.264 25.0478 200.154 25.7541 199.932 26.4052C199.711 27.0562 199.388 27.6259 198.964 28.1142C198.548 28.5959 198.043 28.9735 197.451 29.247C196.865 29.5139 196.202 29.6474 195.46 29.6474C194.717 29.6474 194.05 29.5139 193.458 29.247C192.865 28.9735 192.357 28.5959 191.934 28.1142C191.517 27.6259 191.198 27.0562 190.977 26.4052C190.756 25.7541 190.645 25.0478 190.645 24.286ZM192.451 24.0614V24.286C192.451 24.8134 192.514 25.3114 192.637 25.7802C192.761 26.2424 192.945 26.6526 193.193 27.0107C193.447 27.3687 193.764 27.6519 194.141 27.8603C194.519 28.0621 194.958 28.163 195.46 28.163C195.954 28.163 196.386 28.0621 196.757 27.8603C197.135 27.6519 197.447 27.3687 197.695 27.0107C197.942 26.6526 198.128 26.2424 198.251 25.7802C198.382 25.3114 198.447 24.8134 198.447 24.286V24.0614C198.447 23.5406 198.382 23.0491 198.251 22.5868C198.128 22.1181 197.94 21.7047 197.686 21.3466C197.439 20.982 197.126 20.6955 196.749 20.4872C196.377 20.2789 195.94 20.1747 195.439 20.1747C194.944 20.1747 194.508 20.2789 194.13 20.4872C193.759 20.6955 193.447 20.982 193.193 21.3466C192.945 21.7047 192.761 22.1181 192.637 22.5868C192.514 23.0491 192.451 23.5406 192.451 24.0614ZM204.335 21.1415V29.4521H202.529V18.8857H204.238L204.335 21.1415ZM203.906 23.7685L203.154 23.7392C203.16 23.0165 203.269 22.3492 203.477 21.7372C203.685 21.1187 203.977 20.5816 204.355 20.1259C204.733 19.6702 205.183 19.3186 205.704 19.0712C206.231 18.8173 206.813 18.6903 207.451 18.6903C207.972 18.6903 208.44 18.762 208.857 18.9052C209.274 19.0419 209.628 19.2633 209.921 19.5692C210.221 19.8752 210.449 20.2724 210.605 20.7607C210.761 21.2424 210.839 21.8316 210.839 22.5282V29.4521H209.023V22.5087C209.023 21.9553 208.942 21.5126 208.779 21.1806C208.616 20.842 208.378 20.5979 208.066 20.4482C207.753 20.2919 207.37 20.2138 206.915 20.2138C206.465 20.2138 206.055 20.3082 205.684 20.497C205.32 20.6858 205.003 20.9462 204.736 21.2782C204.475 21.6103 204.271 21.9911 204.122 22.4208C203.978 22.844 203.906 23.2932 203.906 23.7685Z" fill="white"/>
<path d="M45.5094 31.1978C45.5094 31.1978 45.5052 31.1978 45.5029 31.1978L44.8357 29.3645C44.9442 29.2726 45.0156 29.1378 45.0156 28.9835C45.0156 28.8021 44.9182 28.6449 44.774 28.5572L44.8556 28.1468C45.1004 28.1174 45.2896 27.9094 45.2896 27.6548C45.2896 27.3792 45.0689 27.1567 44.7963 27.1567C44.7661 27.1567 44.7355 27.1609 44.7063 27.1661L42.666 24.0932C42.7259 24.0111 42.762 23.9095 42.762 23.7999C42.762 23.5242 42.5413 23.3018 42.2687 23.3018C42.1963 23.3018 42.1277 23.3186 42.066 23.347L40.145 21.3291C40.1783 21.2615 40.1992 21.1864 40.1992 21.1062C40.1992 20.8305 39.9785 20.6081 39.7058 20.6081C39.6242 20.6081 39.5482 20.63 39.48 20.6659L37.8919 19.1666C37.9178 19.1055 37.9336 19.0378 37.9336 18.967C37.9336 18.6913 37.7129 18.4689 37.4402 18.4689C37.3586 18.4689 37.2826 18.4913 37.2144 18.5267L35.9532 17.3366C35.9791 17.2755 35.9949 17.2078 35.9949 17.137C35.9949 16.8613 35.7742 16.6389 35.5015 16.6389C35.3573 16.6389 35.2284 16.7023 35.1385 16.8012L30.9504 15.0127C30.9504 14.7385 30.7287 14.5165 30.457 14.5165C30.2813 14.5165 30.1278 14.6102 30.0397 14.7497L26.1739 14.1546C26.1322 13.9223 25.9314 13.746 25.6898 13.746C25.4742 13.746 25.2933 13.8855 25.2256 14.0795H22.9011C22.833 13.8855 22.6521 13.746 22.4379 13.746C22.1838 13.746 21.9779 13.94 21.9496 14.1882L19.8686 14.6769C19.781 14.5389 19.6279 14.447 19.4536 14.447C19.2236 14.447 19.0312 14.6065 18.9769 14.8215L17.488 14.9576C17.4096 14.7865 17.239 14.6676 17.0405 14.6676C16.894 14.6676 16.7646 14.7329 16.6733 14.8355L14.9511 14.1252C14.9521 14.1093 14.9562 14.0935 14.9562 14.0767C14.9562 13.8011 14.7355 13.5786 14.4629 13.5786C14.3771 13.5786 14.2978 13.6029 14.2278 13.6411L12.9378 12.3395L12.3897 11.1027C12.4996 11.0108 12.5705 10.8747 12.5705 10.7198C12.5705 10.4815 12.4041 10.2828 12.1824 10.2334L12.1231 8.11286L11.843 8L11.3682 8.47895L11.3223 8.56663L11.0116 10.3006V10.3575L11.2448 11.7841C11.0992 11.8708 11 12.0294 11 12.2117C11 12.4873 11.2207 12.7098 11.4934 12.7098C11.5193 12.7098 11.5444 12.7056 11.5708 12.7023L12.0939 13.5921C12.0229 13.6789 11.9779 13.7885 11.9779 13.9088C11.9779 14.1844 12.1986 14.4069 12.4713 14.4069C12.5673 14.4069 12.6563 14.3784 12.7328 14.3299L15.1338 16.2518C15.1148 16.3036 15.1037 16.3595 15.1037 16.4174C15.1037 16.693 15.3244 16.9154 15.5971 16.9154C15.758 16.9154 15.9003 16.8362 15.9903 16.7158L17.4351 17.1813C17.4416 17.3659 17.5469 17.524 17.7008 17.6056L17.3902 19.8596C17.1653 19.9062 16.996 20.1067 16.996 20.3469C16.996 20.5871 17.1569 20.7764 17.3725 20.8291L17.4982 22.0841C17.3308 22.1643 17.2149 22.3341 17.2149 22.5328C17.2149 22.668 17.2691 22.7911 17.3558 22.8811L16.5945 24.4472C16.5787 24.4462 16.5629 24.442 16.5476 24.442C16.2745 24.442 16.0543 24.665 16.0543 24.9401C16.0543 25.0152 16.0719 25.0847 16.1002 25.1481L14.6743 26.5892C14.6103 26.5584 14.5394 26.5397 14.4629 26.5397C14.1897 26.5397 13.9695 26.7622 13.9695 27.0378C13.9695 27.2024 14.0488 27.3461 14.1703 27.4365L13.5605 29.4587C13.299 29.4704 13.0899 29.6867 13.0899 29.9544C13.0899 30.2226 13.3106 30.4525 13.5832 30.4525C13.6115 30.4525 13.6398 30.4483 13.6667 30.4441L14.8839 32.6309C14.8051 32.7195 14.7559 32.8356 14.7559 32.9634C14.7559 33.239 14.9766 33.4615 15.2493 33.4615C15.4617 33.4615 15.6416 33.3253 15.7102 33.1355L18.4089 33.1714L18.5679 32.9541L18.2962 32.1142C18.4047 32.0223 18.4752 31.8875 18.4752 31.7331C18.4752 31.4575 18.2545 31.2351 17.9818 31.2351C17.871 31.2351 17.7695 31.2728 17.6869 31.3363L16.3306 30.6251C16.3339 30.6027 16.3371 30.5808 16.3371 30.5574C16.3371 30.3746 16.2388 30.2165 16.0932 30.1303L16.4099 28.4882C16.6473 28.4523 16.83 28.2476 16.83 27.9976C16.83 27.9351 16.8175 27.8773 16.7976 27.8222L18.4455 26.4199C18.5188 26.4633 18.6022 26.4894 18.6931 26.4894C18.9662 26.4894 19.1865 26.2669 19.1865 25.9913C19.1865 25.8985 19.1591 25.8117 19.1156 25.7381L20.221 24.4094C20.2743 24.4295 20.3318 24.442 20.3926 24.442C20.4157 24.442 20.4366 24.4378 20.4584 24.4355L21.3223 26.1219C21.2397 26.2105 21.1873 26.3299 21.1873 26.4619C21.1873 26.6148 21.2573 26.7501 21.3649 26.8419L20.8108 28.3446C20.8108 28.3446 20.8057 28.3446 20.8034 28.3446C20.5307 28.3446 20.31 28.5675 20.31 28.8426C20.31 29.1178 20.5298 29.3384 20.8006 29.3407L21.8231 32.3175C21.7354 32.407 21.6807 32.5306 21.6807 32.6677C21.6807 32.9433 21.9014 33.1658 22.1741 33.1658C22.239 33.1658 22.3007 33.1518 22.3572 33.1299L23.5628 34.2972C23.5345 34.3597 23.5179 34.4292 23.5179 34.5019C23.5179 34.7775 23.7386 35 24.0112 35C24.2254 35 24.4063 34.8606 24.4745 34.6675H26.3691L26.5184 34.4334L26.1692 33.6494C26.2583 33.5599 26.3135 33.4354 26.3135 33.2978C26.3135 33.0222 26.0927 32.7997 25.8201 32.7997C25.6944 32.7997 25.5808 32.8482 25.4941 32.9261L24.6636 32.5208C24.6655 32.5031 24.6687 32.4858 24.6687 32.4672C24.6687 32.1972 24.4554 31.9775 24.1888 31.97L23.2675 29.0973C23.3848 29.0063 23.4617 28.865 23.4617 28.7037C23.4617 28.5726 23.4107 28.4546 23.3291 28.366L24.4072 26.2893C24.4304 26.2926 24.4522 26.2968 24.4763 26.2968C24.7494 26.2968 24.9697 26.0738 24.9697 25.7987C24.9697 25.6107 24.8663 25.4503 24.7146 25.365L25.0555 23.2999C25.157 23.2822 25.2488 23.2332 25.3188 23.1628L28.1682 24.5367C28.1673 24.5516 28.1641 24.5661 28.1641 24.582C28.1641 24.7307 28.2299 24.8618 28.3314 24.9536L27.4175 27.4324C27.4175 27.4324 27.4124 27.4324 27.4101 27.4324C27.137 27.4324 26.9167 27.6553 26.9167 27.9304C26.9167 28.1244 27.0275 28.2905 27.1875 28.3725L26.811 31.2906C26.5894 31.3391 26.4229 31.5387 26.4229 31.777C26.4229 32.0526 26.6436 32.275 26.9163 32.275C26.9496 32.275 26.983 32.2718 27.0146 32.2643L28.1344 34.2314C28.0843 34.3093 28.0537 34.4026 28.0537 34.5015C28.0537 34.7771 28.2744 34.9995 28.5471 34.9995C28.7613 34.9995 28.9421 34.8601 29.0103 34.667H31.849L31.9923 34.4189L31.415 33.3994C31.4892 33.3118 31.536 33.1998 31.536 33.0767C31.536 32.8011 31.3153 32.5787 31.0427 32.5787C30.9068 32.5787 30.7835 32.6346 30.6935 32.7242L29.467 32.1319C29.4693 32.1151 29.4721 32.0983 29.4721 32.0801C29.4721 31.8763 29.3506 31.7014 29.1763 31.624L29.3562 29.1378C29.5862 29.0959 29.7596 28.893 29.7596 28.6491C29.7596 28.5339 29.7197 28.4308 29.6553 28.3464L30.9036 26.6074C30.9476 26.6199 30.9935 26.6297 31.0417 26.6297C31.2884 26.6297 31.4915 26.446 31.5281 26.2077L31.9181 26.1326C31.9946 26.2637 32.1272 26.3551 32.284 26.3742L32.4741 27.2267C32.3299 27.3134 32.2325 27.4715 32.2325 27.6529C32.2325 27.9286 32.4532 28.151 32.7259 28.151C32.7361 28.151 32.7458 28.1487 32.7551 28.1478L34.0256 31.5858C33.9157 31.6776 33.8438 31.8138 33.8438 31.9687C33.8438 32.2443 34.0645 32.4667 34.3372 32.4667C34.4095 32.4667 34.4772 32.4499 34.5389 32.4224L35.8238 33.8322C35.8048 33.8849 35.7923 33.9418 35.7923 34.002C35.7923 34.2776 36.013 34.5001 36.2856 34.5001C36.4846 34.5001 36.6547 34.3807 36.7331 34.21H39.4443L39.5792 33.9484L38.606 32.5502C38.6486 32.4765 38.675 32.3921 38.675 32.3012C38.675 32.0255 38.4543 31.8031 38.1817 31.8031C38.0426 31.8031 37.9169 31.8623 37.8274 31.9561L36.7521 31.5046C36.753 31.4897 36.7563 31.4762 36.7563 31.4626C36.7563 31.2029 36.5597 30.993 36.3088 30.9688L35.4598 27.4566C35.5855 27.3731 35.6689 27.2337 35.6805 27.0737L36.5411 26.8298C36.6311 26.9567 36.7762 27.0397 36.9427 27.0397C37.0786 27.0397 37.201 26.9837 37.2909 26.8951L38.19 27.3256C38.1891 27.3391 38.1858 27.3531 38.1858 27.3666C38.1858 27.5144 38.2508 27.645 38.3509 27.736L37.7746 29.1215C37.7653 29.1215 37.7569 29.1182 37.7472 29.1182C37.4741 29.1182 37.2538 29.3412 37.2538 29.6163C37.2538 29.8915 37.4745 30.1144 37.7472 30.1144C37.8038 30.1144 37.858 30.1027 37.9081 30.085L39.4387 32.012C39.3914 32.088 39.3636 32.1766 39.3636 32.2737C39.3636 32.5493 39.5843 32.7717 39.857 32.7717C40.1296 32.7717 40.3504 32.5493 40.3504 32.2737C40.3504 32.1491 40.3035 32.0372 40.2289 31.9495L40.8669 30.8191C40.892 30.8256 40.917 30.8275 40.9434 30.8298L41.2615 32.1594C41.1266 32.248 41.0366 32.401 41.0366 32.5763C41.0366 32.8519 41.2574 33.0744 41.53 33.0744C41.6993 33.0744 41.8499 32.9877 41.939 32.8557L43.9894 33.3971C44.046 33.6093 44.2361 33.7655 44.4642 33.7655C44.7374 33.7655 44.9576 33.5431 44.9576 33.2675C44.9576 33.1681 44.9284 33.0777 44.8793 32.9993L45.3967 32.1752C45.4324 32.1836 45.4691 32.1888 45.5066 32.1888C45.7797 32.1888 46 31.9663 46 31.6907C46 31.4151 45.7793 31.1926 45.5066 31.1926L45.5094 31.1978ZM39.8621 31.7793C39.8621 31.7793 39.8579 31.7793 39.8547 31.7793L38.8999 27.8148C39.0632 27.7336 39.1758 27.5657 39.1758 27.3694C39.1758 27.2757 39.1485 27.1889 39.1035 27.1138L42.0062 24.2201C42.0262 24.2326 42.0479 24.2452 42.0702 24.255L41.4252 27.5042C41.1609 27.5126 40.9485 27.7308 40.9485 27.9999C40.9485 28.2014 41.0677 28.3735 41.2369 28.4518L40.961 29.8425C40.6995 29.8551 40.4913 30.0715 40.4913 30.3382C40.4913 30.452 40.5312 30.5556 40.5938 30.64L39.9465 31.7858C39.9182 31.7807 39.889 31.7774 39.8598 31.7774L39.8621 31.7793ZM36.4563 26.5141L35.598 26.7571C35.5089 26.6293 35.3615 26.5449 35.1955 26.5449C35.029 26.5449 34.8797 26.6293 34.7907 26.7589L32.8362 25.9633C32.8404 25.9381 32.8436 25.9115 32.8436 25.8854C32.8436 25.7903 32.8163 25.704 32.7704 25.628L34.57 23.868C34.6474 23.9188 34.7392 23.9491 34.8389 23.9491C34.908 23.9491 34.9738 23.9342 35.0332 23.909L36.5847 26.2086C36.5105 26.2898 36.4632 26.397 36.4563 26.5141ZM34.8366 31.9509L35.8363 31.7028C35.9022 31.8241 36.0162 31.916 36.1539 31.9486L36.1424 33.5356C36.108 33.5473 36.0756 33.5608 36.044 33.5799L34.7828 32.1962C34.8162 32.1286 34.8371 32.0535 34.8371 31.9733C34.8371 31.9659 34.8352 31.9584 34.8352 31.9509H34.8366ZM33.1594 27.9052C33.2012 27.8316 33.2271 27.7481 33.2271 27.6571C33.2271 27.4072 33.043 27.201 32.8047 27.1665L32.6123 26.3066C32.6674 26.2706 32.7166 26.2254 32.7546 26.1704L34.7091 26.966C34.7049 26.9912 34.7017 27.0178 34.7017 27.0439C34.7017 27.3013 34.8959 27.5112 35.1449 27.5368L35.9833 31.0065L33.1594 27.9052ZM30.5776 33.2166L28.8995 34.1494C28.8104 34.0617 28.6894 34.0081 28.5554 34.0081C28.503 34.0081 28.4539 34.0188 28.407 34.0332L27.303 32.0946C27.3387 32.0503 27.3679 32.0008 27.3869 31.9458L28.4974 32.1198C28.5165 32.3781 28.7265 32.5819 28.988 32.5819C29.1239 32.5819 29.2472 32.526 29.3372 32.4364L30.5637 33.0287C30.5613 33.0455 30.5586 33.0623 30.5586 33.0805C30.5586 33.128 30.5669 33.1733 30.5794 33.2166H30.5776ZM27.8214 28.2163L28.7854 28.6057C28.7845 28.6216 28.7803 28.6374 28.7803 28.6533C28.7803 28.7661 28.8188 28.8697 28.8819 28.9532L27.1513 31.2705L27.5186 28.4201C27.6443 28.394 27.7514 28.3189 27.8214 28.2163ZM28.5281 31.9006L27.4101 31.7252C27.3985 31.6207 27.3558 31.5256 27.2909 31.451L29.0363 29.1145L28.8563 31.6049C28.707 31.6459 28.5856 31.756 28.529 31.8992L28.5281 31.9006ZM29.2737 28.1552C29.2737 28.1552 29.2718 28.1552 29.2704 28.1552L28.8271 25.0534C29.0186 24.9849 29.1564 24.8021 29.1564 24.5861C29.1564 24.4924 29.129 24.4066 29.0854 24.332L29.972 23.5079C30.036 23.5546 30.1111 23.5858 30.1927 23.5975L30.8085 25.704C30.6578 25.7894 30.5553 25.9498 30.5553 26.1368C30.5553 26.2422 30.5878 26.3392 30.643 26.4194L29.3863 28.1711C29.3497 28.1627 29.3122 28.1561 29.2732 28.1561L29.2737 28.1552ZM21.6853 25.9698C21.6622 25.9698 21.6413 25.974 21.6195 25.9764L20.7556 24.29C20.7672 24.2774 20.7788 24.2634 20.789 24.2499L23.9982 25.7063C23.9917 25.7381 23.989 25.7707 23.989 25.8043C23.989 25.8052 23.989 25.8066 23.989 25.8075L22.1268 26.2497C22.0461 26.0846 21.8801 25.9698 21.6853 25.9698ZM18.6968 25.4988C18.6876 25.4988 18.6792 25.5011 18.6695 25.5021L17.948 22.9725C18.0996 22.8872 18.203 22.7268 18.203 22.5388C18.203 22.3047 18.0421 22.1093 17.8265 22.0566L17.7008 20.8016C17.7008 20.8016 17.7059 20.7984 17.7082 20.7974L20.0086 23.6446C19.9437 23.729 19.9029 23.8334 19.9029 23.9496C19.9029 24.0414 19.9289 24.1268 19.9729 24.2019L18.8689 25.5324C18.8155 25.5123 18.758 25.4997 18.6973 25.4997L18.6968 25.4988ZM12.9396 14.0678L13.9802 14.1648C14.021 14.3989 14.2217 14.5766 14.4652 14.5766C14.4976 14.5766 14.5278 14.5734 14.5584 14.5673L15.2256 15.9044L12.9378 14.072C12.9378 14.072 12.9387 14.0678 12.9401 14.0669L12.9396 14.0678ZM16.0348 16.1944L16.7512 15.5686C16.8328 15.6287 16.9329 15.6656 17.0419 15.6656C17.0744 15.6656 17.1068 15.6623 17.1379 15.6563L17.6327 16.7727C17.596 16.8002 17.5645 16.8329 17.5367 16.8688L16.0895 16.4034C16.0862 16.3283 16.0663 16.2579 16.0338 16.1944H16.0348ZM35.3091 17.5968C35.3675 17.622 35.4324 17.636 35.5006 17.636C35.5822 17.636 35.6583 17.6136 35.7264 17.5781L36.9877 18.7683C36.9617 18.8294 36.9459 18.897 36.9459 18.9679C36.9459 19.1843 37.0827 19.3666 37.2742 19.4357L37.0568 21.2941C36.9 21.3109 36.766 21.4009 36.6877 21.5315L33.5684 20.5018C33.5684 20.4901 33.5716 20.4794 33.5716 20.4677C33.5716 20.3572 33.535 20.2555 33.4743 20.1734L35.3091 17.5968ZM32.6531 20.2191L29.538 19.3191C29.538 19.3097 29.5412 19.3013 29.5412 19.2925C29.5412 19.112 29.4448 18.9548 29.302 18.8681L30.4018 15.508C30.4208 15.5103 30.4385 15.5131 30.4584 15.5131C30.5025 15.5131 30.5442 15.5056 30.5841 15.4954L32.7954 20.0606C32.737 20.1021 32.6888 20.1571 32.6531 20.2191ZM26.1683 17.1094C26.1924 17.0511 26.2059 16.9868 26.2059 16.9206C26.2059 16.893 26.2017 16.8679 26.1975 16.8413L30.0383 15.2743C30.0782 15.3396 30.1315 15.3946 30.195 15.4357L29.0938 18.7991C29.078 18.7981 29.0636 18.7949 29.0479 18.7949C28.9213 18.7949 28.8063 18.8443 28.7196 18.9236L26.1692 17.1094H26.1683ZM26.1159 16.6356C26.0459 16.5335 25.9383 16.4593 25.8136 16.4332L25.7862 14.7343C25.9314 14.7058 26.0519 14.6107 26.121 14.4843L29.946 15.0733L26.1159 16.6356ZM25.5669 14.7254L25.5943 16.4369C25.3787 16.4906 25.2178 16.6851 25.2178 16.9192C25.2178 16.9467 25.2219 16.9719 25.2261 16.9984L23.8563 17.5576C23.7738 17.4247 23.6305 17.3347 23.4655 17.3263L22.6813 14.6764C22.7838 14.6172 22.8622 14.5244 22.9021 14.4106H25.2275C25.2813 14.565 25.4079 14.6844 25.5669 14.7254ZM20.508 23.4636L20.5298 19.563C20.5799 19.5513 20.6272 19.5313 20.6699 19.5061L24.5306 22.598C24.499 22.6633 24.4805 22.7352 24.4805 22.8121C24.4805 22.8154 24.4805 22.8172 24.4805 22.8205L20.8345 23.7238C20.7695 23.5942 20.6513 23.4972 20.5071 23.4631L20.508 23.4636ZM24.6678 22.426L20.8335 19.355C20.8859 19.2757 20.917 19.181 20.917 19.0784C20.917 19.0509 20.9128 19.0257 20.9087 18.9991L23.05 18.1252C23.1399 18.2422 23.28 18.3192 23.439 18.3192C23.4692 18.3192 23.4988 18.315 23.5267 18.3099L24.7313 22.3803C24.7082 22.3928 24.6873 22.4078 24.6664 22.4246L24.6678 22.426ZM22.4384 14.7436C22.449 14.7436 22.4592 14.7413 22.4708 14.7403L23.248 17.3636C23.0713 17.4396 22.947 17.6159 22.947 17.8225C22.947 17.8575 22.9512 17.892 22.9577 17.9251L20.8289 18.7935C20.7399 18.6648 20.5924 18.5803 20.4241 18.5803C20.2817 18.5803 20.1552 18.6414 20.0643 18.7384L18.3723 17.3837C18.4038 17.3184 18.4223 17.2466 18.4223 17.1696C18.4223 17.04 18.3723 16.9238 18.2916 16.8352L19.2714 15.4086C19.3279 15.4319 19.3896 15.4455 19.4554 15.4455C19.7095 15.4455 19.9163 15.2515 19.9437 15.0024L22.0248 14.5151C22.1124 14.6536 22.2654 14.745 22.4398 14.745L22.4384 14.7436ZM19.0914 15.2804L18.1117 16.707C18.0551 16.6837 17.9934 16.6701 17.9276 16.6701C17.8951 16.6701 17.8627 16.6734 17.8311 16.6795L17.3364 15.563C17.424 15.4954 17.4889 15.4002 17.5172 15.2897L19.0061 15.1535C19.027 15.2002 19.0562 15.2431 19.0896 15.2804H19.0914ZM18.235 17.5557L19.953 18.932C19.9395 18.9786 19.9289 19.0271 19.9289 19.0775C19.9289 19.3139 20.0921 19.5103 20.3096 19.562L20.2878 23.4627C20.2493 23.4711 20.2113 23.486 20.1769 23.5037L17.8766 20.6566C17.9415 20.5722 17.9823 20.4677 17.9823 20.3516C17.9823 20.1594 17.8733 19.9948 17.7157 19.9113L18.0263 17.6574C18.1047 17.6416 18.1747 17.6047 18.2345 17.5562L18.235 17.5557ZM24.0882 25.5021L20.879 24.0456C20.8855 24.0139 20.8883 23.9813 20.8883 23.9472C20.8883 23.944 20.8883 23.9421 20.8883 23.9388L24.5343 23.0355C24.5792 23.125 24.6483 23.1978 24.735 23.2468L24.3942 25.3118C24.2704 25.3342 24.1624 25.4041 24.0882 25.5021ZM25.2669 22.4143C25.1844 22.3532 25.0837 22.315 24.9743 22.315C24.9636 22.315 24.9534 22.3173 24.9419 22.3182L23.7298 18.2226C23.8522 18.1317 23.9329 17.9871 23.9329 17.8225C23.9329 17.8034 23.9296 17.7866 23.9278 17.7675L25.3082 17.2041C25.3972 17.3328 25.5447 17.4172 25.713 17.4172C25.8396 17.4172 25.9546 17.3678 26.0413 17.2885L28.5916 19.1027C28.5675 19.1605 28.554 19.2253 28.554 19.2915C28.554 19.375 28.5758 19.4529 28.6124 19.5215L25.2674 22.4129L25.2669 22.4143ZM29.4768 19.5313L32.5877 20.4304C32.5877 20.443 32.5835 20.4547 32.5835 20.4672C32.5835 20.5568 32.6086 20.6403 32.6503 20.713L30.5266 22.6867C30.4491 22.6358 30.3573 22.6055 30.2576 22.6055C30.215 22.6055 30.1742 22.613 30.1343 22.6232L29.2862 19.7243C29.3655 19.6791 29.4313 19.6124 29.4754 19.5313H29.4768ZM31.0482 25.635C31.038 25.635 31.0283 25.6373 31.0181 25.6383L30.4139 23.5741C30.6105 23.5089 30.7529 23.3242 30.7529 23.1036C30.7529 23.0084 30.7255 22.9212 30.6796 22.8462L32.7982 20.8772C32.8775 20.9322 32.9739 20.9648 33.0773 20.9648C33.1413 20.9648 33.2007 20.9523 33.2563 20.9299L34.5111 23.0784C34.4095 23.1693 34.3437 23.3009 34.3437 23.4496C34.3437 23.5448 34.372 23.6324 34.417 23.708L32.6164 25.4685C32.539 25.4177 32.4472 25.3874 32.348 25.3874C32.1013 25.3874 31.8982 25.5711 31.8615 25.8094L31.4716 25.8845C31.3858 25.7367 31.2291 25.6364 31.0468 25.6364L31.0482 25.635ZM35.1607 23.0761C35.074 22.9991 34.9623 22.9516 34.8375 22.9516C34.7907 22.9516 34.7466 22.9599 34.7035 22.9725L33.4372 20.8049C33.4631 20.7774 33.484 20.7457 33.503 20.713L36.6181 21.7409C36.6172 21.7558 36.6139 21.7703 36.6139 21.7861C36.6139 21.8556 36.6288 21.9214 36.6538 21.9815L35.1598 23.0761H35.1607ZM37.2742 21.3179L37.4917 19.4594C37.5534 19.4529 37.6118 19.4352 37.6642 19.4077L39.2523 20.9075C39.2264 20.9686 39.2106 21.0362 39.2106 21.1071C39.2106 21.3151 39.3372 21.4932 39.5171 21.5674L39.1457 23.8055C39.0766 23.8097 39.0117 23.8278 38.9533 23.8572L37.4987 22.0874C37.5626 22.003 37.6021 21.8994 37.6021 21.7856C37.6025 21.5693 37.4653 21.3864 37.2742 21.3179ZM39.2064 24.7951C39.4638 24.7783 39.6687 24.5638 39.6687 24.3003C39.6687 24.0923 39.5421 23.9141 39.3622 23.84L39.7337 21.6014C39.7953 21.5972 39.8538 21.5837 39.908 21.5595L41.83 23.5751C41.7957 23.6427 41.7748 23.7187 41.7748 23.7999C41.7748 23.8969 41.8031 23.9869 41.8513 24.0638L38.9519 26.9534C38.9259 26.9352 38.8976 26.9208 38.8684 26.9091L39.2064 24.7951ZM44.027 28.9835C44.027 28.9961 44.0302 29.0077 44.0302 29.0194L43.4288 29.2064C43.343 29.0576 43.1863 28.9564 43.0032 28.9564C42.909 28.9564 42.8232 28.9839 42.7481 29.0301L41.875 28.2336C41.9051 28.1757 41.9241 28.1109 41.9302 28.0414L44.3154 27.7672C44.3446 27.8968 44.4253 28.0078 44.5338 28.0764L44.4513 28.4933C44.2129 28.5283 44.0279 28.734 44.0279 28.9839L44.027 28.9835ZM44.3145 27.5443L41.8991 27.8218C41.8518 27.6996 41.7577 27.6002 41.6385 27.5461L42.2835 24.297C42.3211 24.2961 42.3568 24.2895 42.3911 24.2811L44.4183 27.3353C44.3683 27.3955 44.3307 27.4664 44.3126 27.5443H44.3145ZM41.1753 29.8807L41.4493 28.4985C41.555 28.4966 41.6524 28.4607 41.7317 28.4015L42.5891 29.1835C42.539 29.2614 42.5084 29.3547 42.5084 29.455C42.5084 29.6135 42.5826 29.7525 42.6976 29.8444L41.6385 32.0964C41.6209 32.0922 41.6019 32.0913 41.5829 32.089L41.2629 30.7496C41.3914 30.66 41.4762 30.5099 41.4762 30.3401C41.4767 30.1331 41.3519 29.9568 41.1753 29.8807ZM41.836 32.192L42.8951 29.94C42.9294 29.9474 42.9651 29.9526 43.0018 29.9526C43.0249 29.9526 43.0467 29.9484 43.0685 29.946L44.1675 32.8776C44.1026 32.927 44.0502 32.9914 44.0168 33.0665L42.0211 32.539C42.0099 32.3986 41.9408 32.2751 41.836 32.192ZM44.4652 32.7745C44.4318 32.7745 44.3993 32.7778 44.3678 32.7839L43.2753 29.8682C43.2879 29.8598 43.2985 29.849 43.3097 29.8397L45.0777 31.4524C45.0378 31.5242 45.0128 31.6063 45.0128 31.694C45.0128 31.8101 45.0536 31.9155 45.1194 31.9999L44.6177 32.7997C44.5695 32.7838 44.5185 32.7722 44.4652 32.7722V32.7745ZM45.1635 31.2327L43.4474 29.6676C43.4775 29.6033 43.4965 29.5314 43.4965 29.4545C43.4965 29.4419 43.4933 29.4302 43.4933 29.4186L44.0947 29.2316C44.1805 29.3803 44.3372 29.4815 44.5204 29.4815C44.5227 29.4815 44.5245 29.4815 44.5264 29.4815L45.1644 31.2332L45.1635 31.2327ZM35.1306 17.4662L33.305 20.0284C33.2359 19.9916 33.1599 19.9692 33.076 19.9692C33.0486 19.9692 33.0226 19.9734 32.9967 19.9776L30.7746 15.3923C30.7978 15.3722 30.8187 15.3513 30.8372 15.327L35.0082 17.1085C35.0082 17.1178 35.0049 17.1276 35.0049 17.1379C35.0049 17.2643 35.0531 17.3785 35.1292 17.4662H35.1306ZM16.549 15.1442C16.549 15.1517 16.5472 15.1591 16.5472 15.1675C16.5472 15.2519 16.5703 15.3303 16.607 15.3998L15.8915 16.0247C15.809 15.9627 15.7074 15.9235 15.5966 15.9235C15.5581 15.9235 15.5215 15.9286 15.4858 15.937L14.7568 14.4764C14.7768 14.4614 14.7967 14.4456 14.8134 14.4279L16.5481 15.1433L16.549 15.1442ZM14.0075 13.8906C14.0001 13.9074 13.9959 13.9265 13.9908 13.9442L12.9586 13.8482C12.9262 13.6043 12.7222 13.4154 12.4713 13.4154C12.4388 13.4154 12.4064 13.4187 12.3753 13.4247L11.8597 12.5475C11.894 12.5083 11.9237 12.4649 11.9445 12.4178L12.667 12.5298L12.6846 12.5564L14.0084 13.8925L14.0075 13.8906ZM11.7707 11.1088L11.5615 11.6913L11.3733 10.5412L11.5931 10.6349C11.5875 10.6634 11.5847 10.6923 11.5847 10.7217C11.5847 10.8788 11.658 11.0174 11.7707 11.1078V11.1088ZM12.5538 12.2877L11.9849 12.2001C11.9798 12.0303 11.8908 11.8825 11.7572 11.7971L11.9687 11.2072C12.0044 11.2156 12.041 11.2207 12.0785 11.2207C12.0785 11.2207 12.0809 11.2207 12.0818 11.2207L12.5543 12.2887L12.5538 12.2877ZM11.639 8.68182L11.8082 8.51067L11.8583 10.2796C11.7883 10.3155 11.728 10.3673 11.6816 10.4316L11.3515 10.2898L11.6399 8.68182H11.639ZM17.6535 23.0294C17.6725 23.0318 17.6902 23.0346 17.7101 23.0346C17.7194 23.0346 17.7277 23.0322 17.7375 23.0313L18.459 25.5608C18.3073 25.6462 18.2039 25.8066 18.2039 25.9946C18.2039 26.0571 18.2165 26.1149 18.2364 26.1699L16.5884 27.5723C16.555 27.5522 16.5193 27.5373 16.4818 27.5256L16.6186 25.434C16.8578 25.4004 17.0433 25.1943 17.0433 24.9434C17.0433 24.8039 16.9867 24.6794 16.8959 24.5889L17.654 23.028V23.0294H17.6535ZM17.4954 31.791L15.6416 32.6668C15.5989 32.6099 15.5433 32.5633 15.4807 32.5297L15.8382 31.0588C15.8382 31.0588 15.8433 31.0588 15.8465 31.0588C15.9764 31.0588 16.0946 31.007 16.1822 30.9235L17.5061 31.6179C17.4968 31.6557 17.4903 31.6958 17.4903 31.7373C17.4903 31.7551 17.4936 31.7732 17.4954 31.79V31.791ZM14.021 30.1918C14.6701 30.3672 15.0875 30.4777 15.3541 30.5486C15.3541 30.5528 15.3531 30.557 15.3531 30.5621C15.3531 30.7561 15.4649 30.9231 15.6263 31.0051L15.2688 32.4733C15.2623 32.4733 15.2572 32.4709 15.2521 32.4709C15.2261 32.4709 15.202 32.4751 15.1769 32.4784L13.9565 30.2856C13.9815 30.2571 14.0024 30.2254 14.0205 30.1904L14.021 30.1918ZM15.4097 30.3345C15.0555 30.2408 14.5473 30.1046 14.0775 29.9778C14.0775 29.9712 14.0798 29.9661 14.0798 29.96C14.0798 29.7954 14.0006 29.6518 13.8791 29.5613L14.4888 27.5391C14.6321 27.5326 14.7578 27.4641 14.8431 27.361L15.8627 27.8824C15.8535 27.9216 15.847 27.9603 15.847 28.0027C15.847 28.1851 15.9453 28.3436 16.0909 28.4299L15.7742 30.072C15.6147 30.0957 15.4807 30.196 15.4097 30.3345ZM16.3988 25.4177L16.262 27.5126C16.1419 27.5317 16.0371 27.5946 15.962 27.6856L14.9423 27.1642C14.9516 27.125 14.9581 27.0863 14.9581 27.0439C14.9581 26.9669 14.9391 26.8951 14.9089 26.8298L16.332 25.3902C16.3538 25.4009 16.3761 25.4093 16.3988 25.4167V25.4177ZM18.1858 32.8417L15.8539 32.8109L17.5668 32.0013C17.6535 32.1417 17.8075 32.2354 17.9841 32.2354C17.9865 32.2354 17.9883 32.2354 17.9892 32.2354L18.1858 32.8417ZM21.677 26.9651C21.677 26.9651 21.6821 26.9651 21.6844 26.9651C21.9571 26.9651 22.1778 26.7421 22.1778 26.467C22.1778 26.4661 22.1778 26.4647 22.1778 26.4637L24.04 26.0216C24.0608 26.065 24.0882 26.1051 24.1207 26.141L23.0426 28.2177C23.0194 28.2144 22.9976 28.2102 22.9735 28.2102C22.7277 28.2102 22.526 28.3917 22.4885 28.6281L21.2787 28.7051C21.2504 28.6099 21.1961 28.5278 21.1229 28.4667L21.677 26.9641V26.9651ZM25.3443 33.413L24.2004 34.044C24.1429 34.0206 24.0812 34.0071 24.0154 34.0071C23.9361 34.0071 23.8619 34.0281 23.7947 34.0621L22.6081 32.913C22.6382 32.858 22.6582 32.796 22.6665 32.7307L23.7145 32.6281C23.7794 32.8263 23.9625 32.9699 24.1809 32.9699C24.3168 32.9699 24.4392 32.9149 24.5282 32.8254L25.3406 33.2208C25.3365 33.2474 25.3323 33.2735 25.3323 33.301C25.3323 33.3388 25.3374 33.3761 25.3457 33.412L25.3443 33.413ZM21.2921 28.9266L22.5019 28.8496C22.5427 28.9867 22.6378 29.0987 22.7644 29.1588L22.1194 32.1603L21.1145 29.2348C21.2077 29.1598 21.2736 29.052 21.2935 28.9275L21.2921 28.9266ZM23.6922 32.407L22.6424 32.5096C22.5923 32.3637 22.4792 32.2508 22.335 32.2014L22.9707 29.2414L23.8805 32.0782C23.7789 32.1575 23.7098 32.2737 23.6922 32.4084V32.407ZM24.4786 34.3382C24.4587 34.2832 24.4304 34.2328 24.3938 34.1885L25.4403 33.6102C25.5303 33.724 25.6685 33.7982 25.8243 33.7982C25.8419 33.7982 25.8586 33.7949 25.8753 33.7931L26.1178 34.3378H24.4772L24.4786 34.3382ZM25.4635 22.8662C25.4658 22.8494 25.4686 22.8326 25.4686 22.8144C25.4686 22.731 25.4468 22.6531 25.4102 22.5845L28.7553 19.6931C28.8378 19.7542 28.9384 19.7924 29.0479 19.7924C29.0585 19.7924 29.0678 19.7906 29.078 19.7892L29.9386 22.7314C29.8343 22.8233 29.767 22.9562 29.767 23.1059C29.767 23.1913 29.7902 23.2705 29.8278 23.34L28.9338 24.1706C28.8554 24.1189 28.7622 24.0885 28.6621 24.0885C28.5239 24.0885 28.3987 24.1464 28.3097 24.2396L25.4635 22.8676V22.8662ZM28.618 25.1453L29.0562 28.2079C28.9727 28.2499 28.9023 28.3147 28.8531 28.3949L27.9007 28.0106C27.9049 27.9855 27.9081 27.9598 27.9081 27.9337C27.9081 27.7807 27.8381 27.6445 27.7305 27.5536L28.618 25.1453ZM29.0177 34.3392C29.0177 34.3392 29.0177 34.3373 29.0177 34.3359L30.6833 33.4102C30.7733 33.5128 30.904 33.5781 31.0505 33.5781C31.0807 33.5781 31.109 33.5739 31.1382 33.5697L31.5741 34.3392H29.0186H29.0177ZM33.1311 28.2018L35.8549 31.1926C35.8034 31.2705 35.7742 31.3647 35.7742 31.465C35.7742 31.4734 35.7765 31.4818 35.7765 31.4902L34.7782 31.7378C34.6947 31.5816 34.5333 31.4752 34.3451 31.4752C34.3442 31.4752 34.3432 31.4752 34.3418 31.4752L33.1311 28.2018ZM36.7711 33.8826C36.7618 33.8458 36.747 33.8098 36.7303 33.7758L37.9336 32.7279C38.0087 32.7745 38.0959 32.803 38.19 32.803C38.2508 32.803 38.3092 32.7904 38.3625 32.7703L39.1364 33.8826H36.7711ZM37.7008 32.2625C37.6999 32.276 37.6967 32.29 37.6967 32.3044C37.6967 32.4038 37.7259 32.4956 37.7759 32.5735L36.588 33.6079C36.523 33.5594 36.4465 33.5277 36.3631 33.516L36.3747 31.9509C36.4706 31.9299 36.5564 31.88 36.6227 31.8106L37.7008 32.2634V32.2625ZM37.4351 26.5976C37.4374 26.5794 37.4402 26.5626 37.4402 26.5449C37.4402 26.2692 37.2195 26.0468 36.9469 26.0468C36.8829 26.0468 36.8226 26.0603 36.766 26.0827L35.2103 23.777C35.2854 23.6893 35.3337 23.5765 35.3337 23.451C35.3337 23.3815 35.3188 23.3158 35.2938 23.2556L36.7878 22.1611C36.8745 22.238 36.9863 22.2856 37.111 22.2856C37.1917 22.2856 37.2659 22.2646 37.3327 22.2306L38.7873 24.0004C38.7237 24.0848 38.6839 24.1883 38.6839 24.3021C38.6839 24.5111 38.8114 24.6892 38.9922 24.7634L38.6533 26.876C38.5257 26.8844 38.4117 26.9394 38.3282 27.0257L37.4351 26.5976ZM38.6597 27.8661C38.6681 27.8661 38.6755 27.8684 38.6839 27.8684C38.6862 27.8684 38.6871 27.8684 38.689 27.8684L39.6089 31.693L38.1701 29.8821C38.2169 29.8061 38.2452 29.7175 38.2452 29.6205C38.2452 29.475 38.1812 29.3449 38.0834 29.2535L38.6607 27.8656L38.6597 27.8661Z" fill="white" stroke="white" stroke-width="0.1"/>
</g>
<defs>
<clipPath id="clip0_1_2">
<rect width="225" height="45" fill="white"/>
</clipPath>
</defs>
</svg>
