<svg width="500" height="500" viewBox="0 0 500 500" fill="none" xmlns="http://www.w3.org/2000/svg">
<rect width="500" height="500" rx="10" fill="black"/>
<path d="M432.687 319.816C432.687 319.816 432.648 319.816 432.622 319.816L425.455 300.313C426.63 299.347 427.387 297.898 427.387 296.253C427.387 294.321 426.342 292.65 424.789 291.723L425.664 287.363C428.288 287.05 430.324 284.83 430.324 282.128C430.324 279.204 427.948 276.828 425.024 276.828C424.698 276.828 424.371 276.867 424.058 276.92L402.14 244.219C402.78 243.344 403.184 242.261 403.184 241.099C403.184 238.175 400.808 235.799 397.884 235.799C397.101 235.799 396.37 235.982 395.704 236.282L375.066 214.808C375.431 214.09 375.64 213.293 375.64 212.445C375.64 209.521 373.264 207.145 370.34 207.145C369.465 207.145 368.643 207.38 367.912 207.758L350.85 191.793C351.137 191.14 351.294 190.422 351.294 189.678C351.294 186.754 348.918 184.378 345.994 184.378C345.119 184.378 344.297 184.613 343.566 184.992L330.029 172.329C330.316 171.677 330.472 170.959 330.472 170.215C330.472 167.29 328.097 164.915 325.172 164.915C323.619 164.915 322.248 165.593 321.269 166.651L276.285 147.618C276.285 144.694 273.909 142.331 270.985 142.331C269.092 142.331 267.447 143.323 266.507 144.811L224.982 138.467C224.525 136 222.371 134.12 219.773 134.12C217.462 134.12 215.517 135.608 214.786 137.67H189.814C189.083 135.595 187.137 134.12 184.84 134.12C182.112 134.12 179.892 136.182 179.605 138.832L157.256 144.041C156.317 142.566 154.672 141.587 152.805 141.587C150.338 141.587 148.275 143.284 147.688 145.581L131.696 147.03C130.861 145.216 129.033 143.936 126.892 143.936C125.326 143.936 123.929 144.628 122.95 145.725L104.452 138.167C104.465 137.997 104.504 137.827 104.504 137.657C104.504 134.733 102.129 132.357 99.2044 132.357C98.2907 132.357 97.4291 132.618 96.6719 133.023L82.8084 119.16L76.9209 106.001C78.0958 105.035 78.866 103.573 78.866 101.928C78.866 99.3956 77.0776 97.2808 74.7017 96.7586L74.0621 74.201L71.0466 73L65.9424 78.1042L65.4594 79.0441L62.1175 97.5027V98.1032L64.6239 113.285C63.0574 114.212 62 115.896 62 117.841C62 120.765 64.3759 123.141 67.3 123.141C67.5872 123.141 67.8613 123.102 68.1224 123.063L73.7357 132.527C72.9655 133.441 72.4956 134.616 72.4956 135.895C72.4956 138.819 74.8714 141.195 77.7956 141.195C78.8269 141.195 79.7798 140.882 80.6022 140.373L106.384 160.829C106.188 161.377 106.058 161.964 106.058 162.591C106.058 165.515 108.434 167.891 111.358 167.891C113.094 167.891 114.608 167.042 115.587 165.763L131.109 170.711C131.174 172.682 132.31 174.366 133.955 175.227L130.613 199.221C128.198 199.717 126.37 201.845 126.37 204.417C126.37 206.988 128.093 208.986 130.417 209.547L131.775 222.901C129.986 223.75 128.733 225.564 128.733 227.679C128.733 229.128 129.307 230.434 130.247 231.387L122.075 248.057C121.906 248.044 121.736 248.004 121.566 248.004C118.642 248.004 116.266 250.38 116.266 253.304C116.266 254.101 116.449 254.845 116.762 255.524L101.45 270.862C100.758 270.536 100.001 270.34 99.1783 270.34C96.2542 270.34 93.8783 272.716 93.8783 275.64C93.8783 277.389 94.7399 278.93 96.0453 279.896L89.4921 301.409C86.6855 301.54 84.4271 303.837 84.4271 306.683C84.4271 309.529 86.803 311.983 89.7271 311.983C90.0404 311.983 90.3276 311.944 90.6278 311.892L103.695 335.167C102.847 336.107 102.311 337.347 102.311 338.705C102.311 341.629 104.687 344.005 107.611 344.005C109.896 344.005 111.815 342.556 112.572 340.533L141.552 340.911L143.249 338.601L140.325 329.658C141.487 328.692 142.257 327.243 142.257 325.599C142.257 322.674 139.881 320.299 136.957 320.299C135.769 320.299 134.673 320.703 133.785 321.369L119.217 313.798C119.256 313.563 119.295 313.328 119.295 313.08C119.295 311.135 118.237 309.451 116.684 308.537L120.078 291.07C122.637 290.692 124.595 288.512 124.595 285.849C124.595 285.196 124.464 284.569 124.242 283.982L141.944 269.048C142.727 269.505 143.628 269.792 144.607 269.792C147.531 269.792 149.907 267.416 149.907 264.492C149.907 263.5 149.62 262.586 149.15 261.79L161.016 247.652C161.59 247.874 162.217 248.004 162.857 248.004C163.105 248.004 163.34 247.965 163.575 247.939L172.843 265.889C171.955 266.842 171.394 268.108 171.394 269.505C171.394 271.137 172.151 272.572 173.3 273.552L167.347 289.543C167.347 289.543 167.295 289.543 167.269 289.543C164.345 289.543 161.969 291.919 161.969 294.843C161.969 297.767 164.319 300.117 167.243 300.143L178.235 331.825C177.295 332.778 176.707 334.097 176.707 335.546C176.707 338.47 179.083 340.846 182.007 340.846C182.699 340.846 183.365 340.702 183.965 340.454L196.915 352.882C196.615 353.548 196.432 354.279 196.432 355.062C196.432 357.986 198.808 360.362 201.732 360.362C204.043 360.362 205.975 358.887 206.706 356.824H227.057L228.663 354.331L224.916 345.989C225.869 345.036 226.47 343.705 226.47 342.243C226.47 339.319 224.094 336.943 221.17 336.943C219.825 336.943 218.598 337.465 217.671 338.287L208.742 333.979C208.768 333.784 208.794 333.601 208.794 333.405C208.794 330.533 206.497 328.196 203.638 328.118L193.743 297.545C195.009 296.579 195.832 295.065 195.832 293.355C195.832 291.958 195.283 290.705 194.409 289.765L205.988 267.664C206.236 267.703 206.471 267.742 206.732 267.742C209.656 267.742 212.032 265.367 212.032 262.442C212.032 260.445 210.922 258.735 209.29 257.834L212.959 235.851C214.055 235.655 215.034 235.146 215.778 234.389L246.39 249.01C246.377 249.166 246.338 249.323 246.338 249.493C246.338 251.072 247.043 252.469 248.14 253.448L238.323 279.831C238.323 279.831 238.271 279.831 238.245 279.831C235.321 279.831 232.945 282.206 232.945 285.131C232.945 287.193 234.133 288.956 235.856 289.83L231.809 320.886C229.433 321.408 227.645 323.523 227.645 326.056C227.645 328.98 230.02 331.356 232.945 331.356C233.31 331.356 233.663 331.316 234.002 331.251L246.038 352.19C245.503 353.025 245.176 354.005 245.176 355.075C245.176 357.999 247.552 360.375 250.476 360.375C252.787 360.375 254.719 358.9 255.45 356.837H285.945L287.485 354.187L281.284 343.339C282.081 342.412 282.59 341.225 282.59 339.893C282.59 336.969 280.214 334.593 277.29 334.593C275.828 334.593 274.496 335.18 273.543 336.146L260.371 329.841C260.385 329.658 260.424 329.476 260.424 329.293C260.424 327.126 259.118 325.259 257.252 324.437L259.184 297.976C261.651 297.519 263.518 295.365 263.518 292.767C263.518 291.553 263.087 290.444 262.395 289.543L275.802 271.032C276.271 271.176 276.768 271.267 277.29 271.267C279.94 271.267 282.12 269.322 282.511 266.776L286.702 265.98C287.524 267.377 288.947 268.356 290.631 268.552L292.681 277.624C291.127 278.551 290.083 280.222 290.083 282.167C290.083 285.091 292.459 287.467 295.383 287.467C295.487 287.467 295.592 287.441 295.696 287.441L309.338 324.032C308.163 324.998 307.393 326.46 307.393 328.105C307.393 331.029 309.769 333.405 312.693 333.405C313.463 333.405 314.207 333.235 314.86 332.935L328.658 347.947C328.449 348.509 328.319 349.122 328.319 349.762C328.319 352.686 330.694 355.062 333.619 355.062C335.759 355.062 337.587 353.796 338.422 351.968H367.546L368.995 349.188L358.539 334.306C358.996 333.523 359.27 332.622 359.27 331.656C359.27 328.732 356.894 326.356 353.97 326.356C352.469 326.356 351.124 326.982 350.158 327.974L338.579 323.157C338.592 323.001 338.631 322.857 338.631 322.701C338.631 319.946 336.517 317.701 333.827 317.453L324.716 280.079C326.06 279.191 326.961 277.716 327.078 276.006L336.321 273.408C337.287 274.753 338.853 275.64 340.629 275.64C342.091 275.64 343.409 275.053 344.362 274.1L354.022 278.682C354.022 278.825 353.983 278.969 353.983 279.126C353.983 280.692 354.675 282.089 355.758 283.055L349.571 297.806C349.466 297.806 349.375 297.78 349.271 297.78C346.346 297.78 343.971 300.156 343.971 303.08C343.971 306.004 346.346 308.38 349.271 308.38C349.884 308.38 350.458 308.25 351.007 308.067L367.455 328.575C366.959 329.384 366.646 330.337 366.646 331.356C366.646 334.28 369.022 336.656 371.946 336.656C374.87 336.656 377.246 334.28 377.246 331.356C377.246 330.037 376.75 328.836 375.94 327.909L382.794 315.886C383.055 315.952 383.342 315.978 383.616 316.004L387.023 330.155C385.574 331.094 384.608 332.726 384.608 334.593C384.608 337.517 386.984 339.893 389.908 339.893C391.736 339.893 393.341 338.966 394.294 337.569L416.317 343.339C416.93 345.598 418.967 347.269 421.408 347.269C424.332 347.269 426.708 344.893 426.708 341.969C426.708 340.911 426.395 339.945 425.859 339.123L431.421 330.35C431.799 330.442 432.191 330.494 432.595 330.494C435.52 330.494 437.895 328.118 437.895 325.194C437.895 322.27 435.52 319.894 432.595 319.894L432.687 319.816ZM372.024 325.99C372.024 325.99 371.972 325.99 371.946 325.99L361.698 283.799C363.447 282.938 364.661 281.149 364.661 279.06C364.661 278.068 364.374 277.141 363.891 276.345L395.078 245.55C395.3 245.694 395.522 245.811 395.756 245.916L388.825 280.496C385.979 280.588 383.694 282.911 383.694 285.783C383.694 287.924 384.974 289.752 386.801 290.6L383.838 305.404C381.031 305.547 378.799 307.845 378.799 310.678C378.799 311.892 379.217 312.988 379.909 313.889L372.964 326.095C372.664 326.042 372.35 326.003 372.037 326.003L372.024 325.99ZM335.446 269.949L326.217 272.533C325.251 271.176 323.684 270.275 321.896 270.275C320.107 270.275 318.502 271.176 317.549 272.559L296.558 264.1C296.597 263.826 296.636 263.552 296.636 263.265C296.636 262.26 296.336 261.333 295.853 260.523L315.186 241.791C316.021 242.326 317.001 242.652 318.071 242.652C318.815 242.652 319.52 242.496 320.16 242.221L336.83 266.698C336.034 267.56 335.524 268.695 335.446 269.949ZM318.045 327.831L328.788 325.194C329.506 326.486 330.721 327.452 332.209 327.805L332.091 344.697C331.726 344.814 331.373 344.971 331.034 345.167L317.497 330.442C317.862 329.724 318.084 328.927 318.084 328.066C318.084 327.988 318.058 327.909 318.058 327.831H318.045ZM300.03 284.765C300.487 283.982 300.761 283.094 300.761 282.128C300.761 279.465 298.79 277.272 296.231 276.906L294.169 267.755C294.769 267.377 295.291 266.881 295.696 266.306L316.687 274.766C316.648 275.04 316.609 275.314 316.609 275.601C316.609 278.342 318.698 280.575 321.374 280.849L330.381 317.779L300.043 284.778L300.03 284.765ZM272.29 341.29L254.262 351.211C253.309 350.284 252.004 349.697 250.568 349.697C250.006 349.697 249.471 349.814 248.962 349.971L237.096 329.345C237.487 328.875 237.788 328.34 237.997 327.766L249.928 329.619C250.124 332.374 252.395 334.541 255.189 334.541C256.651 334.541 257.983 333.953 258.936 332.987L272.107 339.292C272.094 339.475 272.055 339.658 272.055 339.841C272.055 340.35 272.146 340.82 272.277 341.29H272.29ZM242.683 288.068L253.035 292.206C253.022 292.376 252.983 292.532 252.983 292.715C252.983 293.916 253.401 295.013 254.079 295.9L235.49 320.573L239.433 290.235C240.777 289.948 241.926 289.151 242.683 288.068ZM250.281 327.283L238.271 325.416C238.153 324.306 237.696 323.301 236.991 322.505L255.737 297.637L253.805 324.15C252.2 324.593 250.894 325.755 250.294 327.283H250.281ZM258.283 287.415C258.283 287.415 258.257 287.415 258.244 287.415L253.479 254.401C255.541 253.67 257.017 251.725 257.017 249.427C257.017 248.435 256.729 247.508 256.246 246.712L265.776 237.94C266.468 238.436 267.277 238.762 268.152 238.893L274.77 261.307C273.152 262.221 272.055 263.918 272.055 265.902C272.055 267.024 272.407 268.056 272.995 268.904L259.497 287.546C259.105 287.454 258.701 287.389 258.283 287.389V287.415ZM176.772 264.153C176.524 264.153 176.289 264.192 176.054 264.231L166.786 246.281C166.917 246.151 167.034 245.994 167.138 245.851L201.615 261.346C201.549 261.685 201.51 262.038 201.51 262.39C201.51 262.39 201.51 262.416 201.51 262.429L181.511 267.129C180.65 265.38 178.861 264.153 176.772 264.153ZM144.672 259.153C144.568 259.153 144.476 259.179 144.385 259.179L136.631 232.261C138.263 231.36 139.372 229.637 139.372 227.64C139.372 225.147 137.649 223.071 135.325 222.51L133.968 209.155C133.968 209.155 134.02 209.129 134.046 209.116L158.758 239.428C158.053 240.329 157.622 241.438 157.622 242.665C157.622 243.644 157.909 244.558 158.379 245.341L146.513 259.505C145.938 259.296 145.325 259.153 144.672 259.153ZM82.8475 137.501L94.0219 138.532C94.4527 141.025 96.6197 142.918 99.2305 142.918C99.57 142.918 99.9094 142.879 100.236 142.814L107.402 157.056L82.8214 137.566C82.8214 137.566 82.8214 137.527 82.8345 137.501H82.8475ZM116.084 160.137L123.785 153.479C124.66 154.119 125.744 154.523 126.905 154.523C127.258 154.523 127.597 154.484 127.937 154.419L133.25 166.298C132.858 166.586 132.519 166.938 132.218 167.33L116.671 162.369C116.645 161.573 116.423 160.816 116.084 160.15V160.137ZM323.123 175.058C323.763 175.319 324.454 175.475 325.186 175.475C326.06 175.475 326.883 175.24 327.614 174.862L341.151 187.524C340.864 188.177 340.707 188.895 340.707 189.639C340.707 191.937 342.182 193.882 344.232 194.613L341.895 214.39C340.211 214.573 338.762 215.526 337.939 216.909L304.429 205.957C304.429 205.839 304.469 205.722 304.469 205.604C304.469 204.43 304.077 203.346 303.424 202.471L323.136 175.058H323.123ZM294.6 202.968L261.142 193.386C261.142 193.294 261.168 193.203 261.168 193.099C261.168 191.18 260.137 189.509 258.596 188.582L270.41 152.826C270.606 152.852 270.802 152.892 271.011 152.892C271.481 152.892 271.924 152.813 272.368 152.696L296.127 201.284C295.5 201.727 294.991 202.302 294.6 202.968ZM224.929 169.875C225.19 169.249 225.334 168.57 225.334 167.865C225.334 167.578 225.295 167.303 225.256 167.029L266.507 150.346C266.925 151.038 267.499 151.625 268.191 152.069L256.364 187.877C256.194 187.864 256.038 187.825 255.868 187.825C254.51 187.825 253.283 188.347 252.343 189.195L224.942 169.888L224.929 169.875ZM224.381 164.823C223.624 163.74 222.475 162.943 221.131 162.669L220.843 144.589C222.41 144.276 223.702 143.271 224.446 141.926L265.528 148.205L224.381 164.849V164.823ZM218.481 144.498L218.781 162.721C216.47 163.296 214.747 165.358 214.747 167.852C214.747 168.139 214.786 168.413 214.825 168.687L200.113 174.64C199.226 173.23 197.685 172.277 195.91 172.186L187.49 143.989C188.586 143.362 189.435 142.37 189.866 141.169H214.838C215.426 142.814 216.784 144.067 218.494 144.511L218.481 144.498ZM164.149 237.509L164.384 195.997C164.919 195.879 165.428 195.657 165.885 195.396L207.345 228.306C207.019 228.998 206.81 229.768 206.81 230.59C206.81 230.616 206.81 230.642 206.81 230.682L167.635 240.303C166.943 238.919 165.663 237.887 164.123 237.522L164.149 237.509ZM208.82 226.465L167.635 193.777C168.196 192.929 168.535 191.924 168.535 190.827C168.535 190.54 168.496 190.266 168.457 189.992L191.458 180.697C192.424 181.95 193.926 182.773 195.636 182.773C195.962 182.773 196.275 182.734 196.589 182.681L209.525 226.008C209.277 226.152 209.055 226.308 208.834 226.478L208.82 226.465ZM184.879 144.694C184.997 144.694 185.101 144.668 185.218 144.654L193.56 172.577C191.654 173.387 190.323 175.267 190.323 177.46C190.323 177.838 190.362 178.204 190.44 178.556L167.569 187.799C166.616 186.428 165.024 185.527 163.222 185.527C161.695 185.527 160.324 186.18 159.358 187.211L141.187 172.786C141.513 172.094 141.722 171.324 141.722 170.502C141.722 169.131 141.187 167.878 140.325 166.938L150.847 151.756C151.46 152.004 152.126 152.148 152.818 152.148C155.546 152.148 157.766 150.072 158.066 147.422L180.415 142.226C181.354 143.702 182.999 144.681 184.866 144.681L184.879 144.694ZM148.928 150.411L138.406 165.593C137.793 165.345 137.127 165.202 136.435 165.202C136.083 165.202 135.743 165.241 135.404 165.306L130.091 153.427C131.031 152.709 131.735 151.704 132.036 150.516L148.027 149.067C148.262 149.563 148.562 150.02 148.928 150.424V150.411ZM139.725 174.627L158.183 189.274C158.027 189.77 157.922 190.279 157.922 190.827C157.922 193.334 159.671 195.435 162.021 195.984L161.786 237.496C161.368 237.587 160.977 237.744 160.598 237.927L135.887 207.615C136.592 206.714 137.022 205.604 137.022 204.377C137.022 202.328 135.848 200.579 134.164 199.691L137.505 175.697C138.341 175.528 139.098 175.136 139.738 174.627H139.725ZM202.607 259.205L168.131 243.71C168.196 243.37 168.235 243.018 168.235 242.665C168.235 242.639 168.235 242.613 168.235 242.574L207.411 232.953C207.894 233.906 208.638 234.676 209.565 235.198L205.896 257.182C204.552 257.417 203.403 258.161 202.607 259.205ZM215.256 226.335C214.369 225.682 213.298 225.277 212.11 225.277C211.993 225.277 211.888 225.303 211.771 225.316L198.743 181.715C200.061 180.749 200.923 179.209 200.923 177.447C200.923 177.251 200.884 177.055 200.87 176.872L215.7 170.88C216.653 172.251 218.246 173.152 220.047 173.152C221.405 173.152 222.632 172.63 223.572 171.781L250.972 191.088C250.711 191.715 250.568 192.394 250.568 193.099C250.568 193.986 250.803 194.809 251.194 195.553L215.269 226.335H215.256ZM260.489 195.657L293.908 205.226C293.908 205.356 293.869 205.487 293.869 205.618C293.869 206.57 294.143 207.458 294.586 208.241L271.781 229.246C270.945 228.71 269.966 228.384 268.896 228.384C268.439 228.384 267.995 228.462 267.564 228.567L258.453 197.707C259.314 197.224 260.006 196.519 260.489 195.657ZM277.368 260.615C277.251 260.615 277.146 260.641 277.042 260.654L270.554 238.684C272.669 237.979 274.196 236.021 274.196 233.671C274.196 232.666 273.896 231.726 273.413 230.93L296.166 209.978C297.015 210.565 298.046 210.918 299.169 210.918C299.847 210.918 300.5 210.774 301.101 210.539L314.572 233.41C313.476 234.376 312.771 235.786 312.771 237.365C312.771 238.371 313.071 239.31 313.554 240.107L294.221 258.839C293.386 258.291 292.406 257.978 291.336 257.978C288.686 257.978 286.506 259.923 286.114 262.469L281.924 263.265C281.01 261.698 279.313 260.628 277.368 260.628V260.615ZM321.543 233.384C320.617 232.574 319.403 232.052 318.071 232.052C317.575 232.052 317.092 232.144 316.635 232.274L303.033 209.207C303.307 208.907 303.542 208.581 303.751 208.228L337.208 219.168C337.195 219.324 337.156 219.481 337.156 219.651C337.156 220.395 337.313 221.1 337.587 221.739L321.53 233.384H321.543ZM344.245 214.677L346.581 194.9C347.247 194.835 347.874 194.639 348.435 194.339L365.497 210.304C365.21 210.957 365.053 211.675 365.053 212.432C365.053 214.651 366.411 216.544 368.343 217.327L364.348 241.151C363.604 241.19 362.912 241.386 362.286 241.712L346.66 222.875C347.339 221.987 347.769 220.878 347.769 219.664C347.769 217.366 346.294 215.421 344.245 214.69V214.677ZM365.001 251.673C367.768 251.49 369.961 249.219 369.961 246.412C369.961 244.193 368.604 242.3 366.672 241.517L370.666 217.693C371.332 217.653 371.959 217.51 372.533 217.236L393.172 238.697C392.806 239.415 392.584 240.224 392.584 241.086C392.584 242.117 392.898 243.083 393.407 243.892L362.259 274.648C361.972 274.465 361.672 274.296 361.359 274.178L365.001 251.686V251.673ZM416.787 296.253C416.787 296.383 416.813 296.514 416.826 296.631L410.364 298.616C409.45 297.036 407.753 295.953 405.795 295.953C404.79 295.953 403.863 296.253 403.054 296.736L393.668 288.251C393.994 287.624 394.203 286.945 394.255 286.201L419.868 283.29C420.181 284.674 421.042 285.849 422.204 286.58L421.317 291.018C418.745 291.384 416.774 293.577 416.774 296.24L416.787 296.253ZM419.868 280.927L393.929 283.877C393.42 282.572 392.415 281.515 391.135 280.953L398.067 246.36C398.472 246.347 398.85 246.281 399.216 246.19L421.003 278.695C420.468 279.335 420.063 280.079 419.868 280.927ZM386.162 305.795L389.112 291.083C390.248 291.057 391.292 290.679 392.14 290.052L401.357 298.381C400.822 299.216 400.495 300.195 400.495 301.266C400.495 302.95 401.291 304.438 402.532 305.404L391.148 329.371C390.953 329.332 390.757 329.319 390.548 329.293L387.115 315.038C388.498 314.085 389.412 312.492 389.412 310.678C389.412 308.485 388.081 306.592 386.175 305.795H386.162ZM393.25 330.39L404.633 306.422C404.999 306.5 405.39 306.553 405.782 306.553C406.03 306.553 406.265 306.513 406.5 306.474L418.301 337.674C417.609 338.196 417.048 338.888 416.682 339.684L395.234 334.071C395.104 332.57 394.36 331.264 393.25 330.376V330.39ZM421.499 336.603C421.147 336.603 420.794 336.642 420.455 336.708L408.719 305.678C408.85 305.587 408.967 305.482 409.098 305.378L428.092 322.544C427.661 323.314 427.4 324.176 427.4 325.116C427.4 326.356 427.844 327.465 428.549 328.366L423.157 336.877C422.635 336.708 422.087 336.59 421.512 336.59L421.499 336.603ZM428.992 320.194L410.56 303.537C410.886 302.845 411.082 302.088 411.082 301.266C411.082 301.135 411.056 301.005 411.043 300.887L417.505 298.903C418.419 300.482 420.116 301.566 422.074 301.566C422.1 301.566 422.113 301.566 422.139 301.566L428.992 320.207V320.194ZM321.23 173.661L301.623 200.931C300.892 200.539 300.056 200.304 299.169 200.304C298.881 200.304 298.594 200.344 298.32 200.396L274.457 151.586C274.705 151.377 274.927 151.142 275.123 150.894L319.925 169.862C319.925 169.967 319.899 170.071 319.899 170.175C319.899 171.52 320.421 172.734 321.243 173.661H321.23ZM121.632 148.962C121.632 149.041 121.605 149.119 121.605 149.21C121.605 150.111 121.853 150.947 122.245 151.691L114.569 158.335C113.682 157.669 112.598 157.265 111.397 157.265C110.992 157.265 110.588 157.317 110.209 157.408L102.377 141.861C102.585 141.704 102.794 141.535 102.99 141.352L121.632 148.962ZM94.3222 135.608C94.2438 135.791 94.2047 135.986 94.1394 136.182L83.0433 135.151C82.7039 132.553 80.4978 130.543 77.8086 130.543C77.4562 130.543 77.1168 130.582 76.7773 130.647L71.2293 121.314C71.5948 120.909 71.9081 120.439 72.1431 119.93L79.8973 121.118L80.0931 121.392L94.3091 135.608H94.3222ZM70.3025 106.014L68.0571 112.215L66.0337 99.97L68.3965 100.975C68.3443 101.275 68.3052 101.576 68.3052 101.902C68.3052 103.573 69.0884 105.048 70.3025 106.014ZM78.7094 118.559L72.6 117.632C72.5347 115.831 71.5818 114.251 70.1589 113.337L72.4303 107.058C72.8089 107.15 73.2005 107.202 73.6052 107.202C73.6052 107.202 73.6182 107.202 73.6313 107.202L78.7094 118.572V118.559ZM68.8665 80.1798L70.681 78.3653L71.2163 97.1894C70.4591 97.568 69.8064 98.1293 69.3103 98.8081L65.7596 97.2939L68.8535 80.1798H68.8665ZM133.472 232.875C133.668 232.901 133.863 232.94 134.072 232.94C134.177 232.94 134.268 232.914 134.359 232.914L142.114 259.832C140.482 260.732 139.372 262.455 139.372 264.453C139.372 265.105 139.503 265.732 139.725 266.32L122.023 281.254C121.671 281.045 121.279 280.875 120.874 280.757L122.35 258.5C124.921 258.135 126.918 255.955 126.918 253.278C126.918 251.803 126.318 250.472 125.339 249.506L133.485 232.901L133.472 232.875ZM131.775 326.121L111.854 335.441C111.384 334.841 110.797 334.345 110.118 333.992L113.969 318.34C113.969 318.34 114.021 318.34 114.06 318.34C115.457 318.34 116.723 317.792 117.663 316.905L131.879 324.293C131.775 324.698 131.709 325.116 131.709 325.559C131.709 325.755 131.749 325.938 131.762 326.121H131.775ZM94.4527 309.098C101.424 310.952 105.901 312.14 108.773 312.897C108.773 312.949 108.76 312.988 108.76 313.04C108.76 315.116 109.961 316.891 111.684 317.753L107.846 333.379C107.846 333.379 107.729 333.366 107.664 333.366C107.389 333.366 107.115 333.405 106.854 333.444L93.7478 310.103C94.0219 309.79 94.2438 309.464 94.4397 309.098H94.4527ZM109.374 310.612C105.562 309.607 100.105 308.158 95.0663 306.814C95.0663 306.748 95.0793 306.683 95.0793 306.618C95.0793 304.869 94.2177 303.328 92.9123 302.362L99.4655 280.849C101.006 280.784 102.35 280.053 103.277 278.956L114.23 284.504C114.125 284.922 114.06 285.339 114.06 285.783C114.06 287.728 115.117 289.412 116.671 290.326L113.277 307.793C111.567 308.054 110.131 309.111 109.374 310.599V310.612ZM120 258.278L118.525 280.575C117.232 280.784 116.11 281.449 115.3 282.415L104.348 276.867C104.452 276.45 104.517 276.032 104.517 275.588C104.517 274.766 104.322 274.008 103.982 273.317L119.269 258.004C119.504 258.121 119.739 258.213 119.987 258.291L120 258.278ZM139.189 337.295L114.151 336.969L132.545 328.353C133.485 329.841 135.13 330.846 137.022 330.846C137.049 330.846 137.062 330.846 137.088 330.846L139.189 337.295ZM176.694 274.753C176.694 274.753 176.746 274.753 176.772 274.753C179.697 274.753 182.072 272.377 182.072 269.453C182.072 269.453 182.072 269.426 182.072 269.413L202.071 264.714C202.306 265.184 202.594 265.602 202.933 265.98L191.354 288.081C191.106 288.042 190.871 288.003 190.61 288.003C187.973 288.003 185.806 289.935 185.401 292.454L172.412 293.276C172.112 292.271 171.525 291.397 170.741 290.731L176.694 274.739V274.753ZM216.092 343.378L203.808 350.101C203.194 349.853 202.528 349.71 201.823 349.71C200.962 349.71 200.166 349.932 199.461 350.297L186.707 338.065C187.033 337.478 187.242 336.825 187.333 336.12L198.586 335.037C199.291 337.139 201.249 338.666 203.599 338.666C205.048 338.666 206.366 338.078 207.332 337.125L216.053 341.342C216.013 341.616 215.961 341.903 215.961 342.19C215.961 342.595 216.013 342.987 216.105 343.378H216.092ZM172.569 295.626L185.558 294.804C185.989 296.266 187.02 297.454 188.378 298.093L181.446 330.037L170.65 298.903C171.655 298.106 172.347 296.958 172.569 295.639V295.626ZM198.338 332.674L187.059 333.757C186.524 332.204 185.31 331.003 183.756 330.481L190.584 298.968L200.348 329.162C199.265 329.998 198.508 331.238 198.325 332.674H198.338ZM206.784 353.234C206.575 352.647 206.262 352.112 205.883 351.642L217.136 345.493C218.102 346.707 219.577 347.49 221.248 347.49C221.431 347.49 221.614 347.451 221.796 347.438L224.407 353.234H206.784ZM217.358 231.125C217.371 230.943 217.41 230.76 217.41 230.577C217.41 229.689 217.175 228.867 216.784 228.123L252.709 197.341C253.596 197.994 254.667 198.399 255.855 198.399C255.972 198.399 256.077 198.372 256.181 198.359L265.423 229.663C264.301 230.629 263.583 232.052 263.583 233.658C263.583 234.559 263.831 235.407 264.236 236.151L254.641 244.989C253.805 244.441 252.8 244.114 251.73 244.114C250.241 244.114 248.897 244.728 247.944 245.72L217.371 231.112L217.358 231.125ZM251.247 255.38L255.946 287.976C255.045 288.42 254.288 289.112 253.766 289.961L243.532 285.875C243.571 285.601 243.61 285.339 243.61 285.052C243.61 283.421 242.853 281.985 241.704 281.005L251.234 255.38H251.247ZM255.541 353.234C255.541 353.234 255.541 353.208 255.541 353.195L273.439 343.339C274.405 344.423 275.802 345.128 277.381 345.128C277.707 345.128 278.021 345.089 278.321 345.036L283.007 353.234H255.554H255.541ZM299.73 287.911L328.984 319.75C328.436 320.586 328.11 321.578 328.11 322.648C328.11 322.74 328.136 322.831 328.136 322.923L317.405 325.559C316.504 323.902 314.781 322.766 312.758 322.766C312.758 322.766 312.732 322.766 312.719 322.766L299.717 287.924L299.73 287.911ZM338.827 348.378C338.723 347.974 338.579 347.608 338.383 347.242L351.307 336.094C352.116 336.59 353.056 336.89 354.061 336.89C354.714 336.89 355.341 336.76 355.915 336.538L364.231 348.378H338.814H338.827ZM348.801 331.147C348.801 331.303 348.761 331.447 348.761 331.59C348.761 332.648 349.075 333.627 349.61 334.449L336.856 345.454C336.164 344.945 335.342 344.606 334.441 344.475L334.558 327.818C335.59 327.596 336.517 327.061 337.221 326.33L348.801 331.147ZM345.955 270.849C345.981 270.667 346.007 270.484 346.007 270.288C346.007 267.364 343.631 264.988 340.707 264.988C340.015 264.988 339.362 265.132 338.762 265.367L322.039 240.825C322.849 239.898 323.358 238.684 323.358 237.352C323.358 236.608 323.201 235.903 322.927 235.277L338.984 223.619C339.911 224.429 341.125 224.938 342.456 224.938C343.318 224.938 344.114 224.716 344.832 224.35L360.458 243.187C359.779 244.075 359.348 245.185 359.348 246.399C359.348 248.618 360.719 250.524 362.664 251.307L359.022 273.8C357.651 273.878 356.424 274.465 355.537 275.392L345.942 270.836L345.955 270.849ZM359.1 284.347C359.192 284.347 359.27 284.373 359.361 284.373C359.374 284.373 359.401 284.373 359.414 284.373L369.309 325.076L353.853 305.808C354.349 304.999 354.662 304.046 354.662 303.028C354.662 301.474 353.983 300.091 352.913 299.125L359.113 284.36L359.1 284.347Z" fill="white"/>
<path d="M62.0259 414.707V383.155H75.1845C78.4611 383.155 81.0067 383.886 82.8212 385.322C84.6227 386.771 85.5234 388.794 85.5234 391.392C85.5234 393.089 85.0796 394.551 84.1788 395.778C83.2781 397.005 82.0641 397.893 80.5106 398.467C82.3252 398.95 83.7481 399.825 84.7663 401.104C85.7845 402.384 86.2936 404.015 86.2936 405.987C86.2936 408.793 85.3668 410.947 83.5 412.448C81.6333 413.963 79.0485 414.707 75.7328 414.707H62.0389H62.0259ZM66.5035 396.927H74.4665C78.8266 396.927 81.0067 395.23 81.0067 391.823C81.0067 388.416 78.8266 386.719 74.4665 386.719H66.5035V396.927ZM66.5035 411.117H75.1845C79.5707 411.117 81.7638 409.341 81.7638 405.791C81.7638 402.24 79.5707 400.504 75.1845 400.504H66.5035V411.117Z" fill="white"/>
<path d="M98.9565 414.707V383.155H103.617V410.725H119.243V414.707H98.9696H98.9565Z" fill="white"/>
<path d="M142.453 415.098C139.438 415.098 136.827 414.432 134.621 413.101C132.414 411.769 130.704 409.89 129.49 407.461C128.276 405.033 127.676 402.175 127.676 398.885C127.676 395.595 128.276 392.71 129.49 390.295C130.704 387.88 132.401 386.013 134.621 384.695C136.827 383.376 139.438 382.724 142.453 382.724C145.469 382.724 148.04 383.376 150.26 384.695C152.479 386.013 154.202 387.867 155.403 390.295C156.617 392.71 157.217 395.556 157.217 398.846C157.217 402.135 156.617 405.033 155.403 407.461C154.189 409.89 152.479 411.769 150.26 413.101C148.04 414.432 145.429 415.098 142.453 415.098ZM142.453 411.077C145.586 411.077 148.027 410.007 149.777 407.879C151.526 405.751 152.4 402.749 152.4 398.911C152.4 395.073 151.539 392.071 149.803 389.956C148.066 387.841 145.625 386.784 142.466 386.784C139.307 386.784 136.892 387.841 135.143 389.956C133.394 392.071 132.519 395.06 132.519 398.911C132.519 402.762 133.394 405.751 135.143 407.879C136.892 410.007 139.333 411.077 142.466 411.077H142.453Z" fill="white"/>
<path d="M183.182 415.098C180.167 415.098 177.556 414.432 175.35 413.101C173.143 411.769 171.433 409.89 170.219 407.461C169.005 405.033 168.405 402.175 168.405 398.885C168.405 395.595 169.005 392.71 170.219 390.295C171.433 387.88 173.13 386.013 175.35 384.695C177.556 383.376 180.167 382.724 183.182 382.724C186.198 382.724 188.769 383.376 190.989 384.695C193.208 386.013 194.931 387.867 196.132 390.295C197.346 392.71 197.946 395.556 197.946 398.846C197.946 402.135 197.346 405.033 196.132 407.461C194.918 409.89 193.208 411.769 190.989 413.101C188.769 414.432 186.158 415.098 183.182 415.098ZM183.182 411.077C186.315 411.077 188.756 410.007 190.506 407.879C192.255 405.751 193.129 402.749 193.129 398.911C193.129 395.073 192.268 392.071 190.532 389.956C188.795 387.841 186.354 386.784 183.195 386.784C180.036 386.784 177.621 387.841 175.872 389.956C174.123 392.071 173.248 395.06 173.248 398.911C173.248 402.762 174.123 405.751 175.872 407.879C177.621 410.007 180.062 411.077 183.195 411.077H183.182Z" fill="white"/>
<path d="M210.387 414.707V383.155H221.535C226.731 383.155 230.739 384.512 233.558 387.228C236.378 389.943 237.788 393.833 237.788 398.911C237.788 403.989 236.378 407.879 233.558 410.621C230.739 413.349 226.731 414.72 221.535 414.72H210.387V414.707ZM215.035 410.804H221.261C229.055 410.804 232.945 406.835 232.945 398.898C232.945 390.961 229.055 387.032 221.261 387.032H215.035V410.804Z" fill="white"/>
<path d="M250.268 414.707V383.155H254.928V396.757H272.604V383.155H277.212V414.707H272.604V400.647H254.928V414.707H250.268Z" fill="white"/>
<path d="M304.521 415.098C301.505 415.098 298.894 414.432 296.688 413.101C294.482 411.769 292.772 409.89 291.558 407.461C290.344 405.033 289.743 402.175 289.743 398.885C289.743 395.595 290.344 392.71 291.558 390.295C292.772 387.88 294.469 386.013 296.688 384.695C298.894 383.376 301.505 382.724 304.521 382.724C307.536 382.724 310.108 383.376 312.327 384.695C314.546 386.013 316.269 387.867 317.47 390.295C318.684 392.71 319.285 395.556 319.285 398.846C319.285 402.135 318.684 405.033 317.47 407.461C316.256 409.89 314.546 411.769 312.327 413.101C310.108 414.432 307.497 415.098 304.521 415.098ZM304.521 411.077C307.654 411.077 310.095 410.007 311.844 407.879C313.593 405.751 314.468 402.749 314.468 398.911C314.468 395.073 313.606 392.071 311.87 389.956C310.134 387.841 307.693 386.784 304.534 386.784C301.374 386.784 298.959 387.841 297.21 389.956C295.461 392.071 294.586 395.06 294.586 398.911C294.586 402.762 295.461 405.751 297.21 407.879C298.959 410.007 301.401 411.077 304.534 411.077H304.521Z" fill="white"/>
<path d="M344.402 415.098C340.198 415.098 336.974 413.989 334.755 411.756C332.535 409.537 331.426 406.274 331.426 401.979V383.128H336.086V401.887C336.086 408.01 338.867 411.064 344.415 411.064C349.963 411.064 352.743 408.01 352.743 401.887V383.128H357.312V401.979C357.312 406.274 356.229 409.537 354.049 411.756C351.869 413.975 348.657 415.098 344.428 415.098H344.402Z" fill="white"/>
<path d="M370.888 414.707V383.155H374.426L392.506 407.018V383.155H396.801V414.707H393.354L375.183 390.765V414.707H370.888Z" fill="white"/>
<path d="M410.6 414.707V383.155H421.748C426.943 383.155 430.951 384.512 433.771 387.228C436.591 389.943 438 393.833 438 398.911C438 403.989 436.591 407.879 433.771 410.621C430.951 413.349 426.943 414.72 421.748 414.72H410.6V414.707ZM415.247 410.804H421.474C429.267 410.804 433.157 406.835 433.157 398.898C433.157 390.961 429.267 387.032 421.474 387.032H415.247V410.804Z" fill="white"/>
</svg>
